<svg width="211" height="53" viewBox="0 0 211 53" fill="none" xmlns="http://www.w3.org/2000/svg">
<path d="M13.392 40.36C9.744 40.36 6.816 39.184 4.608 36.832C2.424 34.48 1.332 31.156 1.332 26.86C1.332 22.612 2.388 19.3 4.5 16.924C6.636 14.548 9.6 13.36 13.392 13.36C15.024 13.36 16.512 13.48 17.856 13.72C18.336 13.816 18.732 14.068 19.044 14.476C19.356 14.86 19.512 15.304 19.512 15.808C19.512 16.24 19.332 16.588 18.972 16.852C18.636 17.092 18.264 17.152 17.856 17.032C16.728 16.744 15.36 16.6 13.752 16.6C11.16 16.6 9.108 17.5 7.596 19.3C6.108 21.076 5.364 23.596 5.364 26.86C5.364 30.124 6.132 32.656 7.668 34.456C9.204 36.232 11.232 37.12 13.752 37.12C15.336 37.12 16.764 36.964 18.036 36.652C18.444 36.532 18.816 36.604 19.152 36.868C19.512 37.132 19.692 37.48 19.692 37.912C19.692 38.416 19.536 38.872 19.224 39.28C18.912 39.664 18.504 39.904 18 40C16.584 40.24 15.048 40.36 13.392 40.36ZM37.2333 30.64C37.2333 26.08 35.5773 23.8 32.2653 23.8C28.9533 23.8 27.2973 26.08 27.2973 30.64C27.2973 35.2 28.9533 37.48 32.2653 37.48C35.5773 37.48 37.2333 35.2 37.2333 30.64ZM38.7453 37.84C37.1853 39.52 35.0253 40.36 32.2653 40.36C29.5053 40.36 27.3453 39.52 25.7853 37.84C24.2253 36.136 23.4453 33.736 23.4453 30.64C23.4453 27.544 24.2253 25.156 25.7853 23.476C27.3453 21.772 29.5053 20.92 32.2653 20.92C35.0253 20.92 37.1853 21.772 38.7453 23.476C40.3053 25.156 41.0853 27.544 41.0853 30.64C41.0853 33.736 40.3053 36.136 38.7453 37.84ZM52.7572 23.8C49.6372 23.8 48.0772 26.08 48.0772 30.64C48.0772 32.944 48.4852 34.66 49.3012 35.788C50.1412 36.916 51.2932 37.48 52.7572 37.48C54.0292 37.48 55.1212 37.06 56.0332 36.22C56.9692 35.38 57.4372 34.42 57.4372 33.34V27.94C57.4372 26.86 56.9692 25.9 56.0332 25.06C55.1212 24.22 54.0292 23.8 52.7572 23.8ZM51.8572 40.36C49.6732 40.36 47.8612 39.484 46.4212 37.732C45.0052 35.98 44.2972 33.616 44.2972 30.64C44.2972 27.568 44.9812 25.18 46.3492 23.476C47.7412 21.772 49.5772 20.92 51.8572 20.92C53.9932 20.92 55.8172 21.688 57.3292 23.224C57.3532 23.248 57.3772 23.26 57.4012 23.26C57.4252 23.26 57.4372 23.248 57.4372 23.224V14.872C57.4372 14.344 57.6172 13.9 57.9772 13.54C58.3612 13.18 58.8172 13 59.3452 13C59.8732 13 60.3172 13.18 60.6772 13.54C61.0372 13.9 61.2172 14.344 61.2172 14.872V38.236C61.2172 38.716 61.0372 39.136 60.6772 39.496C60.3412 39.832 59.9332 40 59.4532 40C58.9732 40 58.5532 39.832 58.1932 39.496C57.8572 39.136 57.6772 38.716 57.6532 38.236L57.6172 37.696C57.6172 37.672 57.6052 37.66 57.5812 37.66C57.5572 37.66 57.5332 37.672 57.5092 37.696C56.6212 38.68 55.7452 39.376 54.8812 39.784C54.0172 40.168 53.0092 40.36 51.8572 40.36ZM73.7764 23.728C71.0404 23.728 69.5044 25.348 69.1684 28.588C69.1204 28.804 69.2164 28.912 69.4564 28.912H77.5204C77.7124 28.912 77.8084 28.804 77.8084 28.588C77.6644 25.348 76.3204 23.728 73.7764 23.728ZM74.6764 40.36C71.6764 40.36 69.3604 39.544 67.7284 37.912C66.1204 36.28 65.3164 33.856 65.3164 30.64C65.3164 27.424 66.0364 25 67.4764 23.368C68.9404 21.736 71.0404 20.92 73.7764 20.92C78.7684 20.92 81.3484 23.848 81.5164 29.704C81.5404 30.28 81.3364 30.76 80.9044 31.144C80.4724 31.528 79.9684 31.72 79.3924 31.72H69.4204C69.2284 31.72 69.1324 31.816 69.1324 32.008C69.4204 35.704 71.3884 37.552 75.0364 37.552C76.3084 37.552 77.5564 37.348 78.7804 36.94C79.1404 36.82 79.4764 36.868 79.7884 37.084C80.1004 37.3 80.2564 37.6 80.2564 37.984C80.2564 38.44 80.1124 38.848 79.8244 39.208C79.5364 39.568 79.1644 39.808 78.7084 39.928C77.3884 40.216 76.0444 40.36 74.6764 40.36Z" fill="#D29A67"/>
<path d="M87.0711 32.332C86.5191 32.092 86.0751 31.72 85.7391 31.216C85.4271 30.712 85.2711 30.16 85.2711 29.56C85.2711 28.96 85.4271 28.408 85.7391 27.904C86.0751 27.4 86.5191 27.028 87.0711 26.788L102.407 20.164C102.791 19.996 103.151 20.032 103.487 20.272C103.823 20.488 103.991 20.8 103.991 21.208C103.991 22.336 103.463 23.116 102.407 23.548L87.6471 29.524C87.6231 29.524 87.6111 29.536 87.6111 29.56C87.6111 29.584 87.6231 29.596 87.6471 29.596L102.407 35.572C103.463 36.004 103.991 36.796 103.991 37.948C103.991 38.356 103.823 38.668 103.487 38.884C103.151 39.1 102.791 39.124 102.407 38.956L87.0711 32.332ZM174.525 35.572L189.285 29.596C189.309 29.596 189.321 29.584 189.321 29.56C189.321 29.536 189.309 29.524 189.285 29.524L174.525 23.548C173.469 23.116 172.941 22.324 172.941 21.172C172.941 20.764 173.109 20.452 173.445 20.236C173.781 20.02 174.141 19.996 174.525 20.164L189.861 26.788C190.413 27.028 190.845 27.4 191.157 27.904C191.493 28.408 191.661 28.96 191.661 29.56C191.661 30.16 191.493 30.712 191.157 31.216C190.845 31.72 190.413 32.092 189.861 32.332L174.525 38.956C174.141 39.124 173.781 39.1 173.445 38.884C173.109 38.644 172.941 38.32 172.941 37.912C172.941 36.784 173.469 36.004 174.525 35.572Z" fill="#ABB2BF"/>
<path d="M109.961 41.44C109.505 41.44 109.145 41.248 108.881 40.864C108.641 40.504 108.617 40.12 108.809 39.712L119.717 15.448C119.957 14.92 120.305 14.5 120.761 14.188C121.241 13.876 121.769 13.72 122.345 13.72C122.801 13.72 123.149 13.912 123.389 14.296C123.629 14.656 123.665 15.04 123.497 15.448L112.589 39.712C112.349 40.24 111.989 40.66 111.509 40.972C111.053 41.284 110.537 41.44 109.961 41.44ZM131.96 23.728C129.224 23.728 127.688 25.348 127.352 28.588C127.304 28.804 127.4 28.912 127.64 28.912H135.704C135.896 28.912 135.992 28.804 135.992 28.588C135.848 25.348 134.504 23.728 131.96 23.728ZM132.86 40.36C129.86 40.36 127.544 39.544 125.912 37.912C124.304 36.28 123.5 33.856 123.5 30.64C123.5 27.424 124.22 25 125.66 23.368C127.124 21.736 129.224 20.92 131.96 20.92C136.952 20.92 139.532 23.848 139.7 29.704C139.724 30.28 139.52 30.76 139.088 31.144C138.656 31.528 138.152 31.72 137.576 31.72H127.604C127.412 31.72 127.316 31.816 127.316 32.008C127.604 35.704 129.572 37.552 133.22 37.552C134.492 37.552 135.74 37.348 136.964 36.94C137.324 36.82 137.66 36.868 137.972 37.084C138.284 37.3 138.44 37.6 138.44 37.984C138.44 38.44 138.296 38.848 138.008 39.208C137.72 39.568 137.348 39.808 136.892 39.928C135.572 40.216 134.228 40.36 132.86 40.36ZM147.019 39.46C146.659 39.82 146.215 40 145.687 40C145.159 40 144.715 39.82 144.355 39.46C143.995 39.1 143.815 38.656 143.815 38.128V23.08C143.815 22.576 143.983 22.156 144.319 21.82C144.679 21.46 145.111 21.28 145.615 21.28C146.119 21.28 146.551 21.46 146.911 21.82C147.271 22.156 147.463 22.576 147.487 23.08V23.404C147.487 23.428 147.499 23.44 147.523 23.44C147.571 23.44 147.595 23.428 147.595 23.404C149.011 21.748 150.571 20.92 152.275 20.92C153.331 20.92 154.183 21.136 154.831 21.568C155.479 22 156.043 22.732 156.523 23.764C156.523 23.788 156.547 23.8 156.595 23.8C156.619 23.8 156.643 23.788 156.667 23.764C158.083 21.868 159.763 20.92 161.707 20.92C163.675 20.92 165.079 21.46 165.919 22.54C166.783 23.596 167.215 25.456 167.215 28.12V38.128C167.215 38.632 167.023 39.076 166.639 39.46C166.279 39.82 165.847 40 165.343 40C164.839 40 164.407 39.82 164.047 39.46C163.687 39.076 163.507 38.632 163.507 38.128V29.2C163.507 27.016 163.303 25.576 162.895 24.88C162.487 24.16 161.731 23.8 160.627 23.8C159.931 23.8 159.211 24.16 158.467 24.88C157.747 25.6 157.387 26.32 157.387 27.04V38.128C157.387 38.632 157.207 39.076 156.847 39.46C156.487 39.82 156.055 40 155.551 40C155.047 40 154.603 39.82 154.219 39.46C153.859 39.076 153.679 38.632 153.679 38.128V29.2C153.679 27.016 153.475 25.576 153.067 24.88C152.659 24.16 151.903 23.8 150.799 23.8C150.103 23.8 149.395 24.16 148.675 24.88C147.955 25.6 147.595 26.32 147.595 27.04V38.128C147.595 38.656 147.403 39.1 147.019 39.46Z" fill="#E06C75"/>
</svg>
