<svg width="211" height="53" viewBox="0 0 211 53" fill="none" xmlns="http://www.w3.org/2000/svg">
<path d="M13.392 40.36C9.744 40.36 6.816 39.184 4.608 36.832C2.424 34.48 1.332 31.156 1.332 26.86C1.332 22.612 2.388 19.3 4.5 16.924C6.636 14.548 9.6 13.36 13.392 13.36C15.024 13.36 16.512 13.48 17.856 13.72C18.336 13.816 18.732 14.068 19.044 14.476C19.356 14.86 19.512 15.304 19.512 15.808C19.512 16.24 19.332 16.588 18.972 16.852C18.636 17.092 18.264 17.152 17.856 17.032C16.728 16.744 15.36 16.6 13.752 16.6C11.16 16.6 9.108 17.5 7.596 19.3C6.108 21.076 5.364 23.596 5.364 26.86C5.364 30.124 6.132 32.656 7.668 34.456C9.204 36.232 11.232 37.12 13.752 37.12C15.336 37.12 16.764 36.964 18.036 36.652C18.444 36.532 18.816 36.604 19.152 36.868C19.512 37.132 19.692 37.48 19.692 37.912C19.692 38.416 19.536 38.872 19.224 39.28C18.912 39.664 18.504 39.904 18 40C16.584 40.24 15.048 40.36 13.392 40.36ZM37.2333 30.64C37.2333 26.08 35.5773 23.8 32.2653 23.8C28.9533 23.8 27.2973 26.08 27.2973 30.64C27.2973 35.2 28.9533 37.48 32.2653 37.48C35.5773 37.48 37.2333 35.2 37.2333 30.64ZM38.7453 37.84C37.1853 39.52 35.0253 40.36 32.2653 40.36C29.5053 40.36 27.3453 39.52 25.7853 37.84C24.2253 36.136 23.4453 33.736 23.4453 30.64C23.4453 27.544 24.2253 25.156 25.7853 23.476C27.3453 21.772 29.5053 20.92 32.2653 20.92C35.0253 20.92 37.1853 21.772 38.7453 23.476C40.3053 25.156 41.0853 27.544 41.0853 30.64C41.0853 33.736 40.3053 36.136 38.7453 37.84ZM52.7572 23.8C49.6372 23.8 48.0772 26.08 48.0772 30.64C48.0772 32.944 48.4852 34.66 49.3012 35.788C50.1412 36.916 51.2932 37.48 52.7572 37.48C54.0292 37.48 55.1212 37.06 56.0332 36.22C56.9692 35.38 57.4372 34.42 57.4372 33.34V27.94C57.4372 26.86 56.9692 25.9 56.0332 25.06C55.1212 24.22 54.0292 23.8 52.7572 23.8ZM51.8572 40.36C49.6732 40.36 47.8612 39.484 46.4212 37.732C45.0052 35.98 44.2972 33.616 44.2972 30.64C44.2972 27.568 44.9812 25.18 46.3492 23.476C47.7412 21.772 49.5772 20.92 51.8572 20.92C53.9932 20.92 55.8172 21.688 57.3292 23.224C57.3532 23.248 57.3772 23.26 57.4012 23.26C57.4252 23.26 57.4372 23.248 57.4372 23.224V14.872C57.4372 14.344 57.6172 13.9 57.9772 13.54C58.3612 13.18 58.8172 13 59.3452 13C59.8732 13 60.3172 13.18 60.6772 13.54C61.0372 13.9 61.2172 14.344 61.2172 14.872V38.236C61.2172 38.716 61.0372 39.136 60.6772 39.496C60.3412 39.832 59.9332 40 59.4532 40C58.9732 40 58.5532 39.832 58.1932 39.496C57.8572 39.136 57.6772 38.716 57.6532 38.236L57.6172 37.696C57.6172 37.672 57.6052 37.66 57.5812 37.66C57.5572 37.66 57.5332 37.672 57.5092 37.696C56.6212 38.68 55.7452 39.376 54.8812 39.784C54.0172 40.168 53.0092 40.36 51.8572 40.36ZM73.7764 23.728C71.0404 23.728 69.5044 25.348 69.1684 28.588C69.1204 28.804 69.2164 28.912 69.4564 28.912H77.5204C77.7124 28.912 77.8084 28.804 77.8084 28.588C77.6644 25.348 76.3204 23.728 73.7764 23.728ZM74.6764 40.36C71.6764 40.36 69.3604 39.544 67.7284 37.912C66.1204 36.28 65.3164 33.856 65.3164 30.64C65.3164 27.424 66.0364 25 67.4764 23.368C68.9404 21.736 71.0404 20.92 73.7764 20.92C78.7684 20.92 81.3484 23.848 81.5164 29.704C81.5404 30.28 81.3364 30.76 80.9044 31.144C80.4724 31.528 79.9684 31.72 79.3924 31.72H69.4204C69.2284 31.72 69.1324 31.816 69.1324 32.008C69.4204 35.704 71.3884 37.552 75.0364 37.552C76.3084 37.552 77.5564 37.348 78.7804 36.94C79.1404 36.82 79.4764 36.868 79.7884 37.084C80.1004 37.3 80.2564 37.6 80.2564 37.984C80.2564 38.44 80.1124 38.848 79.8244 39.208C79.5364 39.568 79.1644 39.808 78.7084 39.928C77.3884 40.216 76.0444 40.36 74.6764 40.36Z" fill="#D29A67"/>
<path d="M87.0711 32.332C86.5191 32.092 86.0751 31.72 85.7391 31.216C85.4271 30.712 85.2711 30.16 85.2711 29.56C85.2711 28.96 85.4271 28.408 85.7391 27.904C86.0751 27.4 86.5191 27.028 87.0711 26.788L102.407 20.164C102.791 19.996 103.151 20.032 103.487 20.272C103.823 20.488 103.991 20.8 103.991 21.208C103.991 22.336 103.463 23.116 102.407 23.548L87.6471 29.524C87.6231 29.524 87.6111 29.536 87.6111 29.56C87.6111 29.584 87.6231 29.596 87.6471 29.596L102.407 35.572C103.463 36.004 103.991 36.796 103.991 37.948C103.991 38.356 103.823 38.668 103.487 38.884C103.151 39.1 102.791 39.124 102.407 38.956L87.0711 32.332ZM109.609 41.44C109.153 41.44 108.793 41.248 108.529 40.864C108.289 40.504 108.265 40.12 108.457 39.712L119.365 15.448C119.605 14.92 119.953 14.5 120.409 14.188C120.889 13.876 121.417 13.72 121.993 13.72C122.449 13.72 122.797 13.912 123.037 14.296C123.277 14.656 123.313 15.04 123.145 15.448L112.237 39.712C111.997 40.24 111.637 40.66 111.157 40.972C110.701 41.284 110.185 41.44 109.609 41.44ZM177.056 35.572L191.816 29.596C191.84 29.596 191.852 29.584 191.852 29.56C191.852 29.536 191.84 29.524 191.816 29.524L177.056 23.548C176 23.116 175.472 22.324 175.472 21.172C175.472 20.764 175.64 20.452 175.976 20.236C176.312 20.02 176.672 19.996 177.056 20.164L192.392 26.788C192.944 27.028 193.376 27.4 193.688 27.904C194.024 28.408 194.192 28.96 194.192 29.56C194.192 30.16 194.024 30.712 193.688 31.216C193.376 31.72 192.944 32.092 192.392 32.332L177.056 38.956C176.672 39.124 176.312 39.1 175.976 38.884C175.64 38.644 175.472 38.32 175.472 37.912C175.472 36.784 176 36.004 177.056 35.572Z" fill="#ABB2BF"/>
<path d="M134.491 23.728C131.755 23.728 130.219 25.348 129.883 28.588C129.835 28.804 129.931 28.912 130.171 28.912H138.235C138.427 28.912 138.523 28.804 138.523 28.588C138.379 25.348 137.035 23.728 134.491 23.728ZM135.391 40.36C132.391 40.36 130.075 39.544 128.443 37.912C126.835 36.28 126.031 33.856 126.031 30.64C126.031 27.424 126.751 25 128.191 23.368C129.655 21.736 131.755 20.92 134.491 20.92C139.483 20.92 142.063 23.848 142.231 29.704C142.255 30.28 142.051 30.76 141.619 31.144C141.187 31.528 140.683 31.72 140.107 31.72H130.135C129.943 31.72 129.847 31.816 129.847 32.008C130.135 35.704 132.103 37.552 135.751 37.552C137.023 37.552 138.271 37.348 139.495 36.94C139.855 36.82 140.191 36.868 140.503 37.084C140.815 37.3 140.971 37.6 140.971 37.984C140.971 38.44 140.827 38.848 140.539 39.208C140.251 39.568 139.879 39.808 139.423 39.928C138.103 40.216 136.759 40.36 135.391 40.36ZM149.55 39.46C149.19 39.82 148.746 40 148.218 40C147.69 40 147.246 39.82 146.886 39.46C146.526 39.1 146.346 38.656 146.346 38.128V23.08C146.346 22.576 146.514 22.156 146.85 21.82C147.21 21.46 147.642 21.28 148.146 21.28C148.65 21.28 149.082 21.46 149.442 21.82C149.802 22.156 149.994 22.576 150.018 23.08V23.404C150.018 23.428 150.03 23.44 150.054 23.44C150.102 23.44 150.126 23.428 150.126 23.404C151.542 21.748 153.102 20.92 154.806 20.92C155.862 20.92 156.714 21.136 157.362 21.568C158.01 22 158.574 22.732 159.054 23.764C159.054 23.788 159.078 23.8 159.126 23.8C159.15 23.8 159.174 23.788 159.198 23.764C160.614 21.868 162.294 20.92 164.238 20.92C166.206 20.92 167.61 21.46 168.45 22.54C169.314 23.596 169.746 25.456 169.746 28.12V38.128C169.746 38.632 169.554 39.076 169.17 39.46C168.81 39.82 168.378 40 167.874 40C167.37 40 166.938 39.82 166.578 39.46C166.218 39.076 166.038 38.632 166.038 38.128V29.2C166.038 27.016 165.834 25.576 165.426 24.88C165.018 24.16 164.262 23.8 163.158 23.8C162.462 23.8 161.742 24.16 160.998 24.88C160.278 25.6 159.918 26.32 159.918 27.04V38.128C159.918 38.632 159.738 39.076 159.378 39.46C159.018 39.82 158.586 40 158.082 40C157.578 40 157.134 39.82 156.75 39.46C156.39 39.076 156.21 38.632 156.21 38.128V29.2C156.21 27.016 156.006 25.576 155.598 24.88C155.19 24.16 154.434 23.8 153.33 23.8C152.634 23.8 151.926 24.16 151.206 24.88C150.486 25.6 150.126 26.32 150.126 27.04V38.128C150.126 38.656 149.934 39.1 149.55 39.46Z" fill="#E06C75"/>
</svg>
