<svg width="1233" height="113" viewBox="0 0 1233 113" fill="none" xmlns="http://www.w3.org/2000/svg">
<rect width="1233" height="113" fill="#1C1F26"/>
<rect x="0.5" y="0.5" width="1232" height="112" stroke="#C8D8E2" stroke-opacity="0.67"/>
<rect width="65.3851" height="24" transform="translate(50.3265 33)" fill="#7749F8"/>
<path d="M69.9573 52H71.9324V47.3977H74.6171C77.6533 47.3977 79.1554 45.5632 79.1554 43.147C79.1554 40.7372 77.6661 38.9091 74.6234 38.9091H69.9573V52ZM71.9324 45.723V40.603H74.4125C76.3685 40.603 77.1675 41.6641 77.1675 43.147C77.1675 44.63 76.3685 45.723 74.4381 45.723H71.9324ZM81.3175 52H83.2287V46.0043C83.2287 44.7195 84.2195 43.7926 85.5746 43.7926C85.9709 43.7926 86.4184 43.8629 86.5718 43.9077V42.0795C86.38 42.054 86.0029 42.0348 85.76 42.0348C84.6094 42.0348 83.625 42.6868 83.2671 43.7415H83.1648V42.1818H81.3175V52ZM92.0098 52.1982C94.7776 52.1982 96.5865 50.1719 96.5865 47.1357C96.5865 44.0803 94.7776 42.054 92.0098 42.054C89.2421 42.054 87.4331 44.0803 87.4331 47.1357C87.4331 50.1719 89.2421 52.1982 92.0098 52.1982ZM92.0162 50.5938C90.2073 50.5938 89.3635 49.0149 89.3635 47.1293C89.3635 45.25 90.2073 43.652 92.0162 43.652C93.8124 43.652 94.6561 45.25 94.6561 47.1293C94.6561 49.0149 93.8124 50.5938 92.0162 50.5938Z" fill="#E5E7EB"/>
<path d="M141.597 54.26C140.435 54.26 139.543 53.9913 138.919 53.454C138.295 52.8993 137.983 52.0587 137.983 50.932V38.556C137.983 37.5853 138.113 36.866 138.373 36.398C138.65 35.93 138.962 35.566 139.309 35.306L139.283 35.202H135.253L135.981 32.394H144.249V35.202C143.607 35.202 143.053 35.41 142.585 35.826C142.117 36.242 141.883 37.0047 141.883 38.114V50.464C141.883 51.1053 142.186 51.426 142.793 51.426C143.053 51.426 143.347 51.3653 143.677 51.244L144.041 53.74C143.382 54.0867 142.567 54.26 141.597 54.26ZM150.954 54.26C149.55 54.26 148.432 53.9567 147.6 53.35C146.768 52.726 146.17 51.8767 145.806 50.802C145.442 49.71 145.26 48.462 145.26 47.058C145.26 45.55 145.425 44.302 145.754 43.314C146.101 42.3087 146.586 41.5287 147.21 40.974C147.834 40.402 148.571 40.0033 149.42 39.778C150.287 39.5353 151.232 39.414 152.254 39.414C153.814 39.414 155.062 39.6307 155.998 40.064C156.934 40.4973 157.61 41.1127 158.026 41.91C158.46 42.7073 158.676 43.6433 158.676 44.718V54H154.776V45.03C154.776 44.2153 154.577 43.6 154.178 43.184C153.797 42.7507 153.156 42.534 152.254 42.534C151.648 42.534 151.11 42.664 150.642 42.924C150.192 43.1667 149.836 43.6087 149.576 44.25C149.334 44.8913 149.212 45.81 149.212 47.006C149.212 48.2367 149.394 49.2333 149.758 49.996C150.122 50.7587 150.755 51.14 151.656 51.14C152.038 51.14 152.384 51.0967 152.696 51.01L153.06 53.922C152.783 54.0433 152.445 54.13 152.046 54.182C151.665 54.234 151.301 54.26 150.954 54.26ZM150.28 37.802V36.502C150.523 36.4327 150.791 36.3373 151.086 36.216C151.381 36.0947 151.641 35.93 151.866 35.722C152.091 35.514 152.204 35.254 152.204 34.942C152.204 34.6993 152.135 34.5087 151.996 34.37C151.857 34.2313 151.684 34.162 151.476 34.162C151.337 34.162 151.19 34.188 151.034 34.24C150.878 34.292 150.739 34.344 150.618 34.396L150.124 32.654C150.471 32.3593 150.904 32.1687 151.424 32.082C151.927 31.978 152.351 31.926 152.698 31.926C153.478 31.926 154.093 32.108 154.544 32.472C154.977 32.836 155.194 33.3733 155.194 34.084C155.194 34.5347 155.064 34.9333 154.804 35.28H158.782V37.802H150.28ZM167.199 54.338C166.176 54.338 165.145 54.2253 164.105 54C163.082 53.7747 162.172 53.454 161.375 53.038L162.467 49.944C162.987 50.2213 163.654 50.516 164.469 50.828C165.284 51.1227 166.142 51.27 167.043 51.27C168.447 51.27 169.149 50.8627 169.149 50.048C169.149 49.5973 168.88 49.2507 168.343 49.008C167.823 48.748 167.095 48.4533 166.159 48.124C165.24 47.7947 164.452 47.4393 163.793 47.058C163.134 46.6767 162.623 46.2087 162.259 45.654C161.912 45.0993 161.739 44.406 161.739 43.574C161.739 42.1527 162.268 41.104 163.325 40.428C164.4 39.752 165.83 39.414 167.615 39.414C168.586 39.414 169.461 39.492 170.241 39.648C171.021 39.804 171.628 40.0033 172.061 40.246V43.314C171.61 43.106 170.978 42.9067 170.163 42.716C169.348 42.508 168.56 42.404 167.797 42.404C166.358 42.404 165.639 42.768 165.639 43.496C165.639 43.912 165.916 44.2413 166.471 44.484C167.043 44.7093 167.84 44.9953 168.863 45.342C170.215 45.81 171.246 46.3733 171.957 47.032C172.685 47.6733 173.049 48.6093 173.049 49.84C173.049 50.62 172.867 51.3567 172.503 52.05C172.156 52.726 171.558 53.2807 170.709 53.714C169.86 54.13 168.69 54.338 167.199 54.338ZM168.403 37.776C167.588 37.776 166.947 37.6547 166.479 37.412C166.011 37.1693 165.681 36.866 165.491 36.502C165.283 36.1207 165.179 35.722 165.179 35.306C165.179 34.6473 165.352 34.0147 165.699 33.408L168.533 33.772C168.446 34.032 168.403 34.2747 168.403 34.5C168.403 34.7427 168.481 34.9333 168.637 35.072C168.775 35.1933 169.018 35.254 169.365 35.254H174.955V37.776H168.403ZM182.19 54.338C179.937 54.338 178.299 53.818 177.276 52.778C176.271 51.7207 175.768 50.1953 175.768 48.202V39.752H179.668V48.41C179.668 49.3287 179.867 50.0307 180.266 50.516C180.682 50.984 181.323 51.218 182.19 51.218C183.057 51.218 183.689 50.984 184.088 50.516C184.504 50.0307 184.712 49.3287 184.712 48.41V39.752H188.612V48.202C188.612 50.1953 188.101 51.7207 187.078 52.778C186.073 53.818 184.443 54.338 182.19 54.338ZM196.094 54.26C194.604 54.26 193.451 53.9047 192.636 53.194C191.839 52.4833 191.44 51.4867 191.44 50.204C191.44 48.8173 191.934 47.708 192.922 46.876C193.928 46.044 195.505 45.5413 197.654 45.368L200.358 45.16V44.744C200.358 43.912 200.133 43.314 199.682 42.95C199.232 42.586 198.538 42.404 197.602 42.404C196.701 42.404 195.817 42.5427 194.95 42.82C194.101 43.08 193.364 43.392 192.74 43.756V40.532C193.243 40.2893 193.954 40.0467 194.872 39.804C195.791 39.544 196.848 39.414 198.044 39.414C198.668 39.414 199.258 39.466 199.812 39.57C200.367 39.6567 200.844 39.83 201.242 40.09C201.658 39.7433 201.875 39.3187 201.892 38.816H205.298C205.298 39.44 205.151 40.0293 204.856 40.584C204.562 41.1387 204.094 41.6067 203.452 41.988C203.712 42.3347 203.894 42.7507 203.998 43.236C204.12 43.7213 204.18 44.276 204.18 44.9V54H200.358V47.968L198.096 48.202C197.056 48.306 196.328 48.514 195.912 48.826C195.514 49.138 195.314 49.554 195.314 50.074C195.314 50.594 195.479 50.984 195.808 51.244C196.155 51.504 196.597 51.634 197.134 51.634C197.342 51.634 197.55 51.6167 197.758 51.582C197.966 51.53 198.157 51.478 198.33 51.426L198.668 53.87C198.339 53.9913 197.949 54.0867 197.498 54.156C197.048 54.2253 196.58 54.26 196.094 54.26ZM192.283 37.776V36.138L194.909 35.046H204.191V37.776H192.283ZM200.837 29.874V25.038H204.217V29.874H200.837ZM210.331 54L206.197 39.752H210.123L213.269 50.854H213.425C213.702 50.854 213.962 50.776 214.205 50.62C214.448 50.464 214.656 50.256 214.829 49.996C215.176 49.5107 215.436 48.9387 215.609 48.28C215.782 47.604 215.869 46.9367 215.869 46.278C215.869 45.1167 215.644 44.224 215.193 43.6C214.76 42.976 214.153 42.664 213.373 42.664C213.217 42.664 213.07 42.6727 212.931 42.69C212.81 42.7073 212.697 42.742 212.593 42.794L211.865 39.804C212.264 39.6827 212.636 39.6133 212.983 39.596C213.347 39.5613 213.642 39.544 213.867 39.544C214.786 39.544 215.583 39.6653 216.259 39.908C216.935 40.1507 217.516 40.5147 218.001 41C219.214 42.2133 219.821 43.9467 219.821 46.2C219.821 47.604 219.596 48.8347 219.145 49.892C218.712 50.932 218.183 51.7553 217.559 52.362C217.039 52.8647 216.38 53.2633 215.583 53.558C214.803 53.8527 213.728 54 212.359 54H210.331ZM222.923 54V39.752H225.783L226.303 41.988H226.511C226.805 41.2773 227.317 40.688 228.045 40.22C228.773 39.7347 229.717 39.492 230.879 39.492C234.189 39.492 235.845 41.2687 235.845 44.822V54H231.945V45.602C231.945 44.6313 231.745 43.938 231.347 43.522C230.965 43.0887 230.402 42.872 229.657 42.872C228.755 42.872 228.053 43.236 227.551 43.964C227.065 44.692 226.823 45.7667 226.823 47.188V54H222.923ZM223.285 37.776V36.138L225.911 35.046H231.865V33.252H235.193V37.776H223.285ZM231.839 31.874V27.038H235.219V31.874H231.839ZM247.871 54.26C246.64 54.26 245.644 54.026 244.881 53.558C244.136 53.09 243.607 52.492 243.295 51.764H243.087L242.671 54H239.707V39.752H243.607V46.564C243.607 48.0373 243.858 49.1293 244.361 49.84C244.864 50.5333 245.574 50.88 246.493 50.88C247.221 50.88 247.776 50.6633 248.157 50.23C248.538 49.7967 248.729 49.1033 248.729 48.15V39.752H252.629V49.008C252.629 50.6893 252.222 51.9893 251.407 52.908C250.61 53.8093 249.431 54.26 247.871 54.26ZM260.052 54V44.588C260.052 43.86 259.878 43.3313 259.532 43.002C259.202 42.6727 258.656 42.508 257.894 42.508C257.322 42.508 256.793 42.586 256.308 42.742C255.84 42.898 255.398 43.0887 254.982 43.314V40.194C255.363 40.0207 255.9 39.8473 256.594 39.674C257.287 39.5007 258.102 39.414 259.038 39.414C259.991 39.414 260.832 39.5527 261.56 39.83C262.305 40.1073 262.886 40.5753 263.302 41.234C263.735 41.8753 263.952 42.7593 263.952 43.886V54H260.052ZM267.45 54V49.658C267.45 48.566 267.667 47.7253 268.1 47.136C268.534 46.5467 269.149 46.1307 269.946 45.888L269.972 45.784L267.19 44.77V44.094C267.19 43.2447 267.442 42.4647 267.944 41.754C268.447 41.0433 269.184 40.48 270.154 40.064C271.142 39.6307 272.338 39.414 273.742 39.414C275.701 39.414 277.261 39.8733 278.422 40.792C279.584 41.6933 280.164 43.0627 280.164 44.9V54H276.264V45.134C276.264 44.2673 276.03 43.6173 275.562 43.184C275.112 42.7507 274.47 42.534 273.638 42.534C272.841 42.534 272.243 42.7073 271.844 43.054C271.446 43.3833 271.229 43.7907 271.194 44.276L273.508 45.342L273.222 47.032C272.598 47.0667 272.13 47.292 271.818 47.708C271.506 48.124 271.35 48.6873 271.35 49.398V54H267.45ZM283.675 54V49.658C283.675 48.566 283.892 47.7253 284.325 47.136C284.758 46.5467 285.374 46.1307 286.171 45.888L286.197 45.784L283.415 44.77V44.094C283.415 43.2447 283.666 42.4647 284.169 41.754C284.672 41.0433 285.408 40.48 286.379 40.064C287.367 39.6307 288.563 39.414 289.967 39.414C291.926 39.414 293.486 39.8733 294.647 40.792C295.808 41.6933 296.389 43.0627 296.389 44.9V54H292.489V45.134C292.489 44.2673 292.255 43.6173 291.787 43.184C291.336 42.7507 290.695 42.534 289.863 42.534C289.066 42.534 288.468 42.7073 288.069 43.054C287.67 43.3833 287.454 43.7907 287.419 44.276L289.733 45.342L289.447 47.032C288.823 47.0667 288.355 47.292 288.043 47.708C287.731 48.124 287.575 48.6873 287.575 49.398V54H283.675ZM303.826 54.338C302.942 54.338 302.11 54.234 301.33 54.026C300.55 53.8353 299.822 53.558 299.146 53.194L300.186 50.36C300.567 50.5853 301.026 50.7847 301.564 50.958C302.101 51.1313 302.63 51.218 303.15 51.218C304.12 51.218 304.892 50.854 305.464 50.126C306.036 49.3807 306.322 48.2713 306.322 46.798C306.322 45.4113 306.036 44.354 305.464 43.626C304.892 42.898 303.999 42.534 302.786 42.534C302.214 42.534 301.624 42.6207 301.018 42.794C300.411 42.95 299.908 43.1493 299.51 43.392V40.194C300.047 39.9513 300.654 39.7607 301.33 39.622C302.006 39.4833 302.725 39.414 303.488 39.414C305.88 39.414 307.613 40.0727 308.688 41.39C309.762 42.69 310.3 44.4927 310.3 46.798C310.3 49.2593 309.736 51.1313 308.61 52.414C307.483 53.6967 305.888 54.338 303.826 54.338ZM306.376 37.776V31.874H309.964V37.776H306.376ZM317.155 54V44.588C317.155 43.86 316.982 43.3313 316.635 43.002C316.306 42.6727 315.76 42.508 314.997 42.508C314.425 42.508 313.896 42.586 313.411 42.742C312.943 42.898 312.501 43.0887 312.085 43.314V40.194C312.466 40.0207 313.004 39.8473 313.697 39.674C314.39 39.5007 315.205 39.414 316.141 39.414C317.094 39.414 317.935 39.5527 318.663 39.83C319.408 40.1073 319.989 40.5753 320.405 41.234C320.838 41.8753 321.055 42.7593 321.055 43.886V54H317.155ZM325.854 54V48.02H324.372V45.628H329.364V51.036H329.546C330.413 51.036 331.08 50.6893 331.548 49.996C332.016 49.3027 332.25 48.254 332.25 46.85C332.25 45.238 331.912 44.1113 331.236 43.47C330.56 42.8287 329.572 42.508 328.272 42.508C327.371 42.508 326.556 42.638 325.828 42.898C325.1 43.1407 324.45 43.4353 323.878 43.782V40.532C324.45 40.2373 325.169 39.9773 326.036 39.752C326.903 39.5267 327.899 39.414 329.026 39.414C331.539 39.414 333.359 40.0207 334.486 41.234C335.63 42.4473 336.202 44.2933 336.202 46.772C336.202 49.0947 335.665 50.88 334.59 52.128C333.533 53.376 331.721 54 329.156 54H325.854ZM342.977 54V44.588C342.977 43.86 342.804 43.3313 342.457 43.002C342.128 42.6727 341.582 42.508 340.819 42.508C340.247 42.508 339.719 42.586 339.233 42.742C338.765 42.898 338.323 43.0887 337.907 43.314V40.194C338.289 40.0207 338.826 39.8473 339.519 39.674C340.213 39.5007 341.027 39.414 341.963 39.414C342.917 39.414 343.757 39.5527 344.485 39.83C345.231 40.1073 345.811 40.5753 346.227 41.234C346.661 41.8753 346.877 42.7593 346.877 43.886V54H342.977ZM350.376 54V49.658C350.376 48.566 350.593 47.7253 351.026 47.136C351.459 46.5467 352.075 46.1307 352.872 45.888L352.898 45.784L350.116 44.77V44.094C350.116 43.2447 350.367 42.4647 350.87 41.754C351.373 41.0433 352.109 40.48 353.08 40.064C354.068 39.6307 355.264 39.414 356.668 39.414C358.627 39.414 360.187 39.8733 361.348 40.792C362.509 41.6933 363.09 43.0627 363.09 44.9V54H359.19V45.134C359.19 44.2673 358.956 43.6173 358.488 43.184C358.037 42.7507 357.396 42.534 356.564 42.534C355.767 42.534 355.169 42.7073 354.77 43.054C354.371 43.3833 354.155 43.7907 354.12 44.276L356.434 45.342L356.148 47.032C355.524 47.0667 355.056 47.292 354.744 47.708C354.432 48.124 354.276 48.6873 354.276 49.398V54H350.376ZM370.735 54.26C369.573 54.26 368.681 53.9913 368.057 53.454C367.433 52.8993 367.121 52.0587 367.121 50.932V39.752H371.021V50.464C371.021 51.1053 371.324 51.426 371.931 51.426C372.191 51.426 372.485 51.3653 372.815 51.244L373.179 53.74C372.52 54.0867 371.705 54.26 370.735 54.26ZM380.379 54.338C379.356 54.338 378.325 54.2253 377.285 54C376.262 53.7747 375.352 53.454 374.555 53.038L375.647 49.944C376.167 50.2213 376.834 50.516 377.649 50.828C378.463 51.1227 379.321 51.27 380.223 51.27C381.627 51.27 382.329 50.8627 382.329 50.048C382.329 49.5973 382.06 49.2507 381.523 49.008C381.003 48.748 380.275 48.4533 379.339 48.124C378.42 47.7947 377.631 47.4393 376.973 47.058C376.314 46.6767 375.803 46.2087 375.439 45.654C375.092 45.0993 374.919 44.406 374.919 43.574C374.919 42.1527 375.447 41.104 376.505 40.428C377.579 39.752 379.009 39.414 380.795 39.414C381.765 39.414 382.641 39.492 383.421 39.648C384.201 39.804 384.807 40.0033 385.241 40.246V43.314C384.79 43.106 384.157 42.9067 383.343 42.716C382.528 42.508 381.739 42.404 380.977 42.404C379.538 42.404 378.819 42.768 378.819 43.496C378.819 43.912 379.096 44.2413 379.651 44.484C380.223 44.7093 381.02 44.9953 382.043 45.342C383.395 45.81 384.426 46.3733 385.137 47.032C385.865 47.6733 386.229 48.6093 386.229 49.84C386.229 50.62 386.047 51.3567 385.683 52.05C385.336 52.726 384.738 53.2807 383.889 53.714C383.039 54.13 381.869 54.338 380.379 54.338ZM392.718 54V44.588C392.718 43.86 392.544 43.3313 392.198 43.002C391.868 42.6727 391.322 42.508 390.56 42.508C389.988 42.508 389.459 42.586 388.974 42.742C388.506 42.898 388.064 43.0887 387.648 43.314V40.194C388.029 40.0207 388.566 39.8473 389.26 39.674C389.953 39.5007 390.768 39.414 391.704 39.414C392.657 39.414 393.498 39.5527 394.226 39.83C394.971 40.1073 395.552 40.5753 395.968 41.234C396.401 41.8753 396.618 42.7593 396.618 43.886V54H392.718Z" fill="#E5E7EB"/>
<path d="M71.0441 87.18C70.7201 87.18 70.4081 87.126 70.1081 87.018C69.8081 86.91 69.5621 86.718 69.3701 86.442C69.1781 86.166 69.0821 85.782 69.0821 85.29V75.714C69.0821 75.042 69.1721 74.544 69.3521 74.22C69.5441 73.896 69.7661 73.644 70.0181 73.464L70.0001 73.392H66.8681L67.2821 72.132H72.3581V73.392C71.9141 73.392 71.5241 73.536 71.1881 73.824C70.8521 74.112 70.6841 74.64 70.6841 75.408V85.092C70.6841 85.368 70.7441 85.566 70.8641 85.686C70.9841 85.806 71.1761 85.866 71.4401 85.866C71.5481 85.866 71.6621 85.854 71.7821 85.83C71.9021 85.806 72.0161 85.776 72.1241 85.74L72.3401 86.91C72.1121 87.018 71.8901 87.09 71.6741 87.126C71.4581 87.162 71.2481 87.18 71.0441 87.18ZM77.2171 87.18C76.2571 87.18 75.5011 86.958 74.9491 86.514C74.4091 86.058 74.0251 85.446 73.7971 84.678C73.5811 83.91 73.4731 83.064 73.4731 82.14C73.4731 80.784 73.6591 79.734 74.0311 78.99C74.4031 78.234 74.9191 77.706 75.5791 77.406C76.2511 77.106 77.0251 76.956 77.9011 76.956C79.3411 76.956 80.3851 77.268 81.0331 77.892C81.6931 78.516 82.0231 79.362 82.0231 80.43V87H80.4391V80.574C80.4391 79.83 80.2531 79.266 79.8811 78.882C79.5091 78.486 78.8671 78.288 77.9551 78.288C77.4031 78.288 76.9051 78.39 76.4611 78.594C76.0291 78.798 75.6871 79.176 75.4351 79.728C75.1951 80.28 75.0751 81.09 75.0751 82.158C75.0751 82.854 75.1411 83.484 75.2731 84.048C75.4171 84.6 75.6631 85.038 76.0111 85.362C76.3591 85.686 76.8451 85.848 77.4691 85.848C77.6491 85.848 77.8171 85.836 77.9731 85.812C78.1291 85.788 78.2791 85.752 78.4231 85.704L78.5851 86.946C78.3931 87.03 78.1711 87.09 77.9191 87.126C77.6791 87.162 77.4451 87.18 77.2171 87.18ZM76.8609 75.57V74.778C77.1009 74.73 77.3469 74.664 77.5989 74.58C77.8509 74.484 78.0609 74.364 78.2289 74.22C78.3969 74.064 78.4809 73.878 78.4809 73.662C78.4809 73.518 78.4389 73.398 78.3549 73.302C78.2589 73.194 78.1149 73.14 77.9229 73.14C77.8029 73.14 77.6829 73.164 77.5629 73.212C77.4309 73.26 77.3169 73.302 77.2209 73.338L76.8609 72.348C77.1009 72.156 77.3709 72.03 77.6709 71.97C77.9589 71.91 78.1929 71.88 78.3729 71.88C78.8529 71.88 79.2309 72.012 79.5069 72.276C79.7709 72.54 79.9029 72.876 79.9029 73.284C79.9029 73.488 79.8669 73.68 79.7949 73.86C79.7229 74.028 79.6329 74.178 79.5249 74.31H82.4409V75.57H76.8609ZM87.7149 87.18C87.0069 87.18 86.3469 87.114 85.7349 86.982C85.1349 86.838 84.6249 86.67 84.2049 86.478L84.6729 85.182C85.0569 85.338 85.5129 85.488 86.0409 85.632C86.5809 85.776 87.1509 85.848 87.7509 85.848C88.3869 85.848 88.9149 85.728 89.3349 85.488C89.7549 85.248 89.9649 84.9 89.9649 84.444C89.9649 84.036 89.7969 83.7 89.4609 83.436C89.1249 83.172 88.5849 82.926 87.8409 82.698C87.0849 82.458 86.4429 82.206 85.9149 81.942C85.3989 81.666 85.0029 81.342 84.7269 80.97C84.4629 80.586 84.3309 80.112 84.3309 79.548C84.3309 78.804 84.6369 78.186 85.2489 77.694C85.8609 77.202 86.8389 76.956 88.1829 76.956C88.7589 76.956 89.2989 77.01 89.8029 77.118C90.3189 77.214 90.7209 77.352 91.0089 77.532V78.882C90.7089 78.738 90.2949 78.6 89.7669 78.468C89.2389 78.336 88.6929 78.27 88.1289 78.27C87.3249 78.27 86.7549 78.396 86.4189 78.648C86.0949 78.888 85.9329 79.164 85.9329 79.476C85.9329 79.74 86.0049 79.962 86.1489 80.142C86.3049 80.322 86.5629 80.496 86.9229 80.664C87.2949 80.832 87.7929 81.024 88.4169 81.24C88.9929 81.432 89.5209 81.654 90.0009 81.906C90.4809 82.158 90.8589 82.476 91.1349 82.86C91.4229 83.232 91.5669 83.712 91.5669 84.3C91.5669 84.804 91.4409 85.278 91.1889 85.722C90.9489 86.154 90.5469 86.508 89.9829 86.784C89.4189 87.048 88.6629 87.18 87.7149 87.18ZM89.2648 75.57C88.5088 75.57 87.9748 75.42 87.6628 75.12C87.3508 74.808 87.1948 74.46 87.1948 74.076C87.1948 73.896 87.2248 73.704 87.2848 73.5C87.3328 73.284 87.3988 73.11 87.4828 72.978L88.8328 73.212C88.7608 73.356 88.7248 73.542 88.7248 73.77C88.7248 73.926 88.7728 74.064 88.8688 74.184C88.9648 74.292 89.1268 74.346 89.3548 74.346H93.9088V75.57H89.2648ZM97.6919 87.18C96.2759 87.18 95.2619 86.856 94.6499 86.208C94.0379 85.56 93.7319 84.636 93.7319 83.436V77.136H95.3339V83.454C95.3339 85.05 96.1199 85.848 97.6919 85.848C98.5079 85.848 99.1079 85.65 99.4919 85.254C99.8879 84.858 100.086 84.258 100.086 83.454V77.136H101.688V83.436C101.688 84.636 101.376 85.56 100.752 86.208C100.14 86.856 99.1199 87.18 97.6919 87.18ZM108.555 87.18C107.139 87.18 106.125 86.856 105.513 86.208C104.901 85.56 104.595 84.636 104.595 83.436V77.136H106.197V83.454C106.197 85.05 106.983 85.848 108.555 85.848C109.371 85.848 109.971 85.65 110.355 85.254C110.751 84.858 110.949 84.258 110.949 83.454V73.59H112.551V83.436C112.551 84.636 112.239 85.56 111.615 86.208C111.003 86.856 109.983 87.18 108.555 87.18ZM118.266 87.18C117.558 87.18 116.898 87.114 116.286 86.982C115.686 86.838 115.176 86.67 114.756 86.478L115.224 85.182C115.608 85.338 116.064 85.488 116.592 85.632C117.132 85.776 117.702 85.848 118.302 85.848C118.938 85.848 119.466 85.728 119.886 85.488C120.306 85.248 120.516 84.9 120.516 84.444C120.516 84.036 120.348 83.7 120.012 83.436C119.676 83.172 119.136 82.926 118.392 82.698C117.636 82.458 116.994 82.206 116.466 81.942C115.95 81.666 115.554 81.342 115.278 80.97C115.014 80.586 114.882 80.112 114.882 79.548C114.882 78.804 115.188 78.186 115.8 77.694C116.412 77.202 117.39 76.956 118.734 76.956C119.31 76.956 119.85 77.01 120.354 77.118C120.87 77.214 121.272 77.352 121.56 77.532V78.882C121.26 78.738 120.846 78.6 120.318 78.468C119.79 78.336 119.244 78.27 118.68 78.27C117.876 78.27 117.306 78.396 116.97 78.648C116.646 78.888 116.484 79.164 116.484 79.476C116.484 79.74 116.556 79.962 116.7 80.142C116.856 80.322 117.114 80.496 117.474 80.664C117.846 80.832 118.344 81.024 118.968 81.24C119.544 81.432 120.072 81.654 120.552 81.906C121.032 82.158 121.41 82.476 121.686 82.86C121.974 83.232 122.118 83.712 122.118 84.3C122.118 84.804 121.992 85.278 121.74 85.722C121.5 86.154 121.098 86.508 120.534 86.784C119.97 87.048 119.214 87.18 118.266 87.18ZM125.579 80.808C124.835 80.808 124.307 80.652 123.995 80.34C123.683 80.016 123.527 79.656 123.527 79.26C123.527 78.852 123.623 78.504 123.815 78.216L125.165 78.432C125.141 78.492 125.111 78.576 125.075 78.684C125.051 78.792 125.039 78.9 125.039 79.008C125.039 79.164 125.081 79.296 125.165 79.404C125.249 79.5 125.405 79.548 125.633 79.548H128.207V80.808H125.579ZM125.579 85.848C124.835 85.848 124.307 85.692 123.995 85.38C123.683 85.056 123.527 84.696 123.527 84.3C123.527 83.892 123.623 83.544 123.815 83.256L125.165 83.472C125.141 83.532 125.111 83.616 125.075 83.724C125.051 83.832 125.039 83.94 125.039 84.048C125.039 84.204 125.081 84.336 125.165 84.444C125.249 84.54 125.405 84.588 125.633 84.588H128.207V85.848H125.579ZM133.047 87.18C131.991 87.18 131.181 86.94 130.617 86.46C130.065 85.968 129.789 85.266 129.789 84.354C129.789 83.358 130.149 82.59 130.869 82.05C131.601 81.51 132.783 81.192 134.415 81.096L136.143 80.988V80.43C136.143 79.65 135.963 79.098 135.603 78.774C135.255 78.438 134.667 78.27 133.839 78.27C133.239 78.27 132.663 78.354 132.111 78.522C131.571 78.678 131.055 78.9 130.563 79.188V77.694C130.911 77.514 131.379 77.346 131.967 77.19C132.567 77.034 133.239 76.956 133.983 76.956C134.463 76.956 134.889 76.998 135.261 77.082C135.645 77.166 135.963 77.31 136.215 77.514C136.419 77.418 136.593 77.286 136.737 77.118C136.881 76.95 136.953 76.74 136.953 76.488H138.519C138.519 76.944 138.387 77.328 138.123 77.64C137.871 77.952 137.547 78.192 137.151 78.36C137.355 78.576 137.499 78.852 137.583 79.188C137.679 79.524 137.727 79.908 137.727 80.34V87H136.143V82.32L134.631 82.428C133.407 82.512 132.561 82.704 132.093 83.004C131.637 83.304 131.409 83.742 131.409 84.318C131.409 84.858 131.577 85.254 131.913 85.506C132.261 85.758 132.741 85.884 133.353 85.884C133.749 85.884 134.097 85.83 134.397 85.722L134.649 86.928C134.421 87.012 134.169 87.072 133.893 87.108C133.629 87.156 133.347 87.18 133.047 87.18ZM144.626 87.18C143.21 87.18 142.196 86.856 141.584 86.208C140.972 85.56 140.666 84.636 140.666 83.436V77.136H142.268V83.454C142.268 85.05 143.054 85.848 144.626 85.848C145.442 85.848 146.042 85.65 146.426 85.254C146.822 84.858 147.02 84.258 147.02 83.454V77.136H148.622V83.436C148.622 84.636 148.31 85.56 147.686 86.208C147.074 86.856 146.054 87.18 144.626 87.18ZM151.439 87V83.58C151.439 82.824 151.607 82.278 151.943 81.942C152.279 81.594 152.705 81.354 153.221 81.222L153.239 81.168L151.259 80.412V79.818C151.259 79.326 151.421 78.864 151.745 78.432C152.069 77.988 152.531 77.634 153.131 77.37C153.743 77.094 154.469 76.956 155.309 76.956C156.041 76.956 156.719 77.076 157.343 77.316C157.967 77.544 158.465 77.91 158.837 78.414C159.221 78.906 159.413 79.554 159.413 80.358V87H157.811V80.52C157.811 79.716 157.565 79.146 157.073 78.81C156.593 78.462 155.999 78.288 155.291 78.288C154.559 78.288 153.977 78.444 153.545 78.756C153.113 79.056 152.897 79.44 152.897 79.908L154.841 80.88L154.697 81.744C154.253 81.744 153.863 81.894 153.527 82.194C153.203 82.482 153.041 82.944 153.041 83.58V87H151.439ZM165.112 87V79.998C165.112 79.41 164.974 78.978 164.698 78.702C164.434 78.426 163.984 78.288 163.348 78.288C162.916 78.288 162.508 78.348 162.124 78.468C161.752 78.576 161.392 78.732 161.044 78.936V77.496C161.284 77.376 161.626 77.256 162.07 77.136C162.514 77.016 163.042 76.956 163.654 76.956C164.59 76.956 165.334 77.166 165.886 77.586C166.438 78.006 166.714 78.732 166.714 79.764V87H165.112ZM172.406 87.18C171.698 87.18 171.038 87.114 170.426 86.982C169.826 86.838 169.316 86.67 168.896 86.478L169.364 85.182C169.748 85.338 170.204 85.488 170.732 85.632C171.272 85.776 171.842 85.848 172.442 85.848C173.078 85.848 173.606 85.728 174.026 85.488C174.446 85.248 174.656 84.9 174.656 84.444C174.656 84.036 174.488 83.7 174.152 83.436C173.816 83.172 173.276 82.926 172.532 82.698C171.776 82.458 171.134 82.206 170.606 81.942C170.09 81.666 169.694 81.342 169.418 80.97C169.154 80.586 169.022 80.112 169.022 79.548C169.022 78.804 169.328 78.186 169.94 77.694C170.552 77.202 171.53 76.956 172.874 76.956C173.45 76.956 173.99 77.01 174.494 77.118C175.01 77.214 175.412 77.352 175.7 77.532V78.882C175.4 78.738 174.986 78.6 174.458 78.468C173.93 78.336 173.384 78.27 172.82 78.27C172.016 78.27 171.446 78.396 171.11 78.648C170.786 78.888 170.624 79.164 170.624 79.476C170.624 79.74 170.696 79.962 170.84 80.142C170.996 80.322 171.254 80.496 171.614 80.664C171.986 80.832 172.484 81.024 173.108 81.24C173.684 81.432 174.212 81.654 174.692 81.906C175.172 82.158 175.55 82.476 175.826 82.86C176.114 83.232 176.258 83.712 176.258 84.3C176.258 84.804 176.132 85.278 175.88 85.722C175.64 86.154 175.238 86.508 174.674 86.784C174.11 87.048 173.354 87.18 172.406 87.18ZM180.457 87.18C180.121 87.18 179.797 87.126 179.485 87.018C179.185 86.91 178.939 86.718 178.747 86.442C178.567 86.166 178.477 85.782 178.477 85.29V83.544C178.477 82.8 178.633 82.26 178.945 81.924C179.269 81.588 179.689 81.354 180.205 81.222L180.223 81.168L178.153 80.412V79.818C178.153 79.29 178.309 78.81 178.621 78.378C178.945 77.946 179.395 77.604 179.971 77.352C180.559 77.088 181.243 76.956 182.023 76.956C182.683 76.956 183.307 77.064 183.895 77.28C184.495 77.496 184.981 77.856 185.353 78.36C185.725 78.852 185.911 79.512 185.911 80.34V83.778C185.911 84.498 186.073 85.02 186.397 85.344C186.733 85.668 187.177 85.83 187.729 85.83C188.449 85.83 189.031 85.56 189.475 85.02C189.919 84.48 190.141 83.772 190.141 82.896V77.136H191.743V87H190.429L190.339 85.434H190.249C190.045 85.986 189.679 86.418 189.151 86.73C188.635 87.03 188.053 87.18 187.405 87.18C186.493 87.18 185.749 86.928 185.173 86.424C184.597 85.92 184.309 85.08 184.309 83.904V80.502C184.309 79.926 184.201 79.476 183.985 79.152C183.769 78.828 183.481 78.606 183.121 78.486C182.773 78.354 182.401 78.288 182.005 78.288C181.369 78.288 180.841 78.426 180.421 78.702C180.013 78.978 179.803 79.38 179.791 79.908L181.843 80.88L181.699 81.744C181.255 81.744 180.871 81.882 180.547 82.158C180.235 82.434 180.079 82.89 180.079 83.526V85.11C180.079 85.614 180.331 85.866 180.835 85.866C181.087 85.866 181.309 85.83 181.501 85.758L181.735 86.91C181.507 87.018 181.285 87.09 181.069 87.126C180.865 87.162 180.661 87.18 180.457 87.18ZM188.777 76.092C188.693 75.96 188.627 75.792 188.579 75.588C188.519 75.372 188.489 75.162 188.489 74.958C188.489 74.706 188.543 74.472 188.651 74.256C188.759 74.028 188.951 73.842 189.227 73.698C189.503 73.554 189.887 73.482 190.379 73.482H192.845V74.724H190.793C190.553 74.724 190.361 74.772 190.217 74.868C190.073 74.952 190.001 75.102 190.001 75.318C190.001 75.402 190.019 75.492 190.055 75.588C190.079 75.684 190.115 75.78 190.163 75.876L188.777 76.092ZM196.859 87.18C196.523 87.18 196.205 87.126 195.905 87.018C195.605 86.91 195.359 86.718 195.167 86.442C194.975 86.166 194.879 85.782 194.879 85.29V78.252C194.879 77.916 194.909 77.646 194.969 77.442C195.029 77.226 195.125 77.016 195.257 76.812C195.401 76.608 195.599 76.35 195.851 76.038C196.151 75.666 196.373 75.36 196.517 75.12C196.661 74.88 196.733 74.616 196.733 74.328C196.733 73.632 196.307 73.284 195.455 73.284C195.083 73.284 194.741 73.338 194.429 73.446C194.129 73.554 193.877 73.662 193.673 73.77V72.402C193.841 72.306 194.093 72.216 194.429 72.132C194.777 72.036 195.185 71.988 195.653 71.988C196.445 71.988 197.081 72.168 197.561 72.528C198.053 72.876 198.299 73.416 198.299 74.148C198.299 74.628 198.209 75.048 198.029 75.408C197.849 75.768 197.639 76.092 197.399 76.38C197.195 76.644 197.021 76.866 196.877 77.046C196.745 77.214 196.643 77.388 196.571 77.568C196.511 77.748 196.481 77.988 196.481 78.288V85.092C196.481 85.368 196.541 85.566 196.661 85.686C196.781 85.806 196.967 85.866 197.219 85.866C197.351 85.866 197.477 85.854 197.597 85.83C197.717 85.806 197.825 85.776 197.921 85.74L198.137 86.91C197.909 87.018 197.687 87.09 197.471 87.126C197.267 87.162 197.063 87.18 196.859 87.18ZM203.288 87.18C202.232 87.18 201.398 86.904 200.786 86.352C200.186 85.8 199.886 84.924 199.886 83.724V77.136H201.488V83.634C201.488 85.098 202.202 85.83 203.63 85.83C204.47 85.83 205.118 85.56 205.574 85.02C206.042 84.48 206.276 83.754 206.276 82.842V77.136H207.878V87H206.546L206.474 85.542H206.384C206.168 86.022 205.79 86.418 205.25 86.73C204.722 87.03 204.068 87.18 203.288 87.18ZM210.835 87V83.58C210.835 82.824 211.003 82.278 211.339 81.942C211.675 81.594 212.101 81.354 212.617 81.222L212.635 81.168L210.655 80.412V79.818C210.655 79.326 210.817 78.864 211.141 78.432C211.465 77.988 211.927 77.634 212.527 77.37C213.139 77.094 213.865 76.956 214.705 76.956C215.437 76.956 216.115 77.076 216.739 77.316C217.363 77.544 217.861 77.91 218.233 78.414C218.617 78.906 218.809 79.554 218.809 80.358V87H217.207V80.52C217.207 79.716 216.961 79.146 216.469 78.81C215.989 78.462 215.395 78.288 214.687 78.288C213.955 78.288 213.373 78.444 212.941 78.756C212.509 79.056 212.293 79.44 212.293 79.908L214.237 80.88L214.093 81.744C213.649 81.744 213.259 81.894 212.923 82.194C212.599 82.482 212.437 82.944 212.437 83.58V87H210.835ZM224.508 87V79.998C224.508 79.41 224.37 78.978 224.094 78.702C223.83 78.426 223.38 78.288 222.744 78.288C222.312 78.288 221.904 78.348 221.52 78.468C221.148 78.576 220.788 78.732 220.44 78.936V77.496C220.68 77.376 221.022 77.256 221.466 77.136C221.91 77.016 222.438 76.956 223.05 76.956C223.986 76.956 224.73 77.166 225.282 77.586C225.834 78.006 226.11 78.732 226.11 79.764V87H224.508ZM231.803 87.18C231.095 87.18 230.435 87.114 229.823 86.982C229.223 86.838 228.713 86.67 228.293 86.478L228.761 85.182C229.145 85.338 229.601 85.488 230.129 85.632C230.669 85.776 231.239 85.848 231.839 85.848C232.475 85.848 233.003 85.728 233.423 85.488C233.843 85.248 234.053 84.9 234.053 84.444C234.053 84.036 233.885 83.7 233.549 83.436C233.213 83.172 232.673 82.926 231.929 82.698C231.173 82.458 230.531 82.206 230.003 81.942C229.487 81.666 229.091 81.342 228.815 80.97C228.551 80.586 228.419 80.112 228.419 79.548C228.419 78.804 228.725 78.186 229.337 77.694C229.949 77.202 230.927 76.956 232.271 76.956C232.847 76.956 233.387 77.01 233.891 77.118C234.407 77.214 234.809 77.352 235.097 77.532V78.882C234.797 78.738 234.383 78.6 233.855 78.468C233.327 78.336 232.781 78.27 232.217 78.27C231.413 78.27 230.843 78.396 230.507 78.648C230.183 78.888 230.021 79.164 230.021 79.476C230.021 79.74 230.093 79.962 230.237 80.142C230.393 80.322 230.651 80.496 231.011 80.664C231.383 80.832 231.881 81.024 232.505 81.24C233.081 81.432 233.609 81.654 234.089 81.906C234.569 82.158 234.947 82.476 235.223 82.86C235.511 83.232 235.655 83.712 235.655 84.3C235.655 84.804 235.529 85.278 235.277 85.722C235.037 86.154 234.635 86.508 234.071 86.784C233.507 87.048 232.751 87.18 231.803 87.18ZM240.052 87.18C239.728 87.18 239.416 87.126 239.116 87.018C238.816 86.91 238.57 86.718 238.378 86.442C238.186 86.166 238.09 85.782 238.09 85.29V77.136H239.692V85.092C239.692 85.368 239.752 85.566 239.872 85.686C239.992 85.806 240.184 85.866 240.448 85.866C240.556 85.866 240.67 85.854 240.79 85.83C240.91 85.806 241.024 85.776 241.132 85.74L241.348 86.91C241.12 87.018 240.898 87.09 240.682 87.126C240.466 87.162 240.256 87.18 240.052 87.18ZM245.725 87.18C245.017 87.18 244.357 87.114 243.745 86.982C243.145 86.838 242.635 86.67 242.215 86.478L242.683 85.182C243.067 85.338 243.523 85.488 244.051 85.632C244.591 85.776 245.161 85.848 245.761 85.848C246.397 85.848 246.925 85.728 247.345 85.488C247.765 85.248 247.975 84.9 247.975 84.444C247.975 84.036 247.807 83.7 247.471 83.436C247.135 83.172 246.595 82.926 245.851 82.698C245.095 82.458 244.453 82.206 243.925 81.942C243.409 81.666 243.013 81.342 242.737 80.97C242.473 80.586 242.341 80.112 242.341 79.548C242.341 78.804 242.647 78.186 243.259 77.694C243.871 77.202 244.849 76.956 246.193 76.956C246.769 76.956 247.309 77.01 247.813 77.118C248.329 77.214 248.731 77.352 249.019 77.532V78.882C248.719 78.738 248.305 78.6 247.777 78.468C247.249 78.336 246.703 78.27 246.139 78.27C245.335 78.27 244.765 78.396 244.429 78.648C244.105 78.888 243.943 79.164 243.943 79.476C243.943 79.74 244.015 79.962 244.159 80.142C244.315 80.322 244.573 80.496 244.933 80.664C245.305 80.832 245.803 81.024 246.427 81.24C247.003 81.432 247.531 81.654 248.011 81.906C248.491 82.158 248.869 82.476 249.145 82.86C249.433 83.232 249.577 83.712 249.577 84.3C249.577 84.804 249.451 85.278 249.199 85.722C248.959 86.154 248.557 86.508 247.993 86.784C247.429 87.048 246.673 87.18 245.725 87.18ZM241.911 75.57V74.868L243.225 74.292H248.067V72.834H249.579V74.868H249.561V75.57H241.911ZM255.54 87.162C254.088 87.162 253.062 86.886 252.462 86.334C251.862 85.782 251.562 85.038 251.562 84.102C251.562 83.55 251.64 83.112 251.796 82.788C251.964 82.452 252.168 82.206 252.408 82.05C252.66 81.894 252.918 81.792 253.182 81.744V81.672C252.942 81.6 252.69 81.48 252.426 81.312C252.162 81.144 251.94 80.91 251.76 80.61C251.592 80.31 251.508 79.932 251.508 79.476C251.508 79.056 251.604 78.66 251.796 78.288C251.988 77.916 252.3 77.61 252.732 77.37C253.164 77.13 253.734 77.01 254.442 77.01C254.73 77.01 255.03 77.034 255.342 77.082C255.654 77.118 255.894 77.184 256.062 77.28L255.774 78.522C255.642 78.474 255.468 78.432 255.252 78.396C255.048 78.348 254.832 78.324 254.604 78.324C254.1 78.324 253.728 78.444 253.488 78.684C253.248 78.912 253.128 79.218 253.128 79.602C253.128 80.022 253.23 80.34 253.434 80.556C253.65 80.772 253.92 80.922 254.244 81.006C254.58 81.078 254.928 81.114 255.288 81.114H255.63V82.284H255.288C254.568 82.284 254.034 82.416 253.686 82.68C253.35 82.932 253.182 83.358 253.182 83.958C253.182 84.306 253.248 84.624 253.38 84.912C253.524 85.2 253.764 85.428 254.1 85.596C254.448 85.764 254.928 85.848 255.54 85.848C256.452 85.848 257.076 85.662 257.412 85.29C257.748 84.906 257.916 84.384 257.916 83.724V77.136H259.518V83.616C259.518 84.876 259.194 85.782 258.546 86.334C257.91 86.886 256.908 87.162 255.54 87.162ZM265.831 87.18C264.775 87.18 263.941 86.904 263.329 86.352C262.729 85.8 262.429 84.924 262.429 83.724V77.136H264.031V83.634C264.031 85.098 264.745 85.83 266.173 85.83C267.013 85.83 267.661 85.56 268.117 85.02C268.585 84.48 268.819 83.754 268.819 82.842V77.136H270.421V87H269.089L269.017 85.542H268.927C268.711 86.022 268.333 86.418 267.793 86.73C267.265 87.03 266.611 87.18 265.831 87.18ZM273.522 87V77.136H274.638L274.926 78.702H274.998C275.202 78.162 275.574 77.736 276.114 77.424C276.654 77.112 277.308 76.956 278.076 76.956C279.144 76.956 279.984 77.232 280.596 77.784C281.208 78.336 281.514 79.212 281.514 80.412V87H279.912V80.502C279.912 79.038 279.198 78.306 277.77 78.306C277.206 78.306 276.726 78.438 276.33 78.702C275.934 78.966 275.634 79.326 275.43 79.782C275.226 80.226 275.124 80.73 275.124 81.294V87H273.522ZM273.674 75.57V74.868L274.988 74.292H279.83V72.834H281.342V74.868H281.324V75.57H273.674ZM279.812 71.772V68.838H281.342V71.772H279.812ZM289.189 87.18C288.421 87.18 287.755 87.03 287.191 86.73C286.639 86.418 286.261 85.986 286.057 85.434H285.985L285.895 87H284.581V77.136H286.183V82.842C286.183 83.754 286.417 84.48 286.885 85.02C287.353 85.56 288.013 85.83 288.865 85.83C290.269 85.83 290.971 85.098 290.971 83.634V77.136H292.573V83.742C292.573 84.93 292.273 85.8 291.673 86.352C291.085 86.904 290.257 87.18 289.189 87.18ZM298.284 87V79.998C298.284 79.41 298.146 78.978 297.87 78.702C297.606 78.426 297.156 78.288 296.52 78.288C296.088 78.288 295.68 78.348 295.296 78.468C294.924 78.576 294.564 78.732 294.216 78.936V77.496C294.456 77.376 294.798 77.256 295.242 77.136C295.686 77.016 296.214 76.956 296.826 76.956C297.762 76.956 298.506 77.166 299.058 77.586C299.61 78.006 299.886 78.732 299.886 79.764V87H298.284ZM302.716 87V83.58C302.716 82.824 302.884 82.278 303.22 81.942C303.556 81.594 303.982 81.354 304.498 81.222L304.516 81.168L302.536 80.412V79.818C302.536 79.326 302.698 78.864 303.022 78.432C303.346 77.988 303.808 77.634 304.408 77.37C305.02 77.094 305.746 76.956 306.586 76.956C307.318 76.956 307.996 77.076 308.62 77.316C309.244 77.544 309.742 77.91 310.114 78.414C310.498 78.906 310.69 79.554 310.69 80.358V87H309.088V80.52C309.088 79.716 308.842 79.146 308.35 78.81C307.87 78.462 307.276 78.288 306.568 78.288C305.836 78.288 305.254 78.444 304.822 78.756C304.39 79.056 304.174 79.44 304.174 79.908L306.118 80.88L305.974 81.744C305.53 81.744 305.14 81.894 304.804 82.194C304.48 82.482 304.318 82.944 304.318 83.58V87H302.716ZM313.509 87V83.58C313.509 82.824 313.677 82.278 314.013 81.942C314.349 81.594 314.775 81.354 315.291 81.222L315.309 81.168L313.329 80.412V79.818C313.329 79.326 313.491 78.864 313.815 78.432C314.139 77.988 314.601 77.634 315.201 77.37C315.813 77.094 316.539 76.956 317.379 76.956C318.111 76.956 318.789 77.076 319.413 77.316C320.037 77.544 320.535 77.91 320.907 78.414C321.291 78.906 321.483 79.554 321.483 80.358V87H319.881V80.52C319.881 79.716 319.635 79.146 319.143 78.81C318.663 78.462 318.069 78.288 317.361 78.288C316.629 78.288 316.047 78.444 315.615 78.756C315.183 79.056 314.967 79.44 314.967 79.908L316.911 80.88L316.767 81.744C316.323 81.744 315.933 81.894 315.597 82.194C315.273 82.482 315.111 82.944 315.111 83.58V87H313.509ZM326.372 87.18C325.904 87.18 325.448 87.132 325.004 87.036C324.572 86.94 324.11 86.76 323.618 86.496L324.122 85.272C324.386 85.428 324.686 85.566 325.022 85.686C325.358 85.794 325.748 85.848 326.192 85.848C327.08 85.848 327.77 85.524 328.262 84.876C328.766 84.216 329.018 83.268 329.018 82.032C329.018 80.82 328.76 79.896 328.244 79.26C327.74 78.612 326.96 78.288 325.904 78.288C325.52 78.288 325.13 78.33 324.734 78.414C324.338 78.498 323.99 78.624 323.69 78.792V77.442C324.038 77.262 324.416 77.136 324.824 77.064C325.244 76.992 325.664 76.956 326.084 76.956C327.164 76.956 328.04 77.172 328.712 77.604C329.384 78.024 329.876 78.612 330.188 79.368C330.5 80.124 330.656 81.012 330.656 82.032C330.656 83.616 330.296 84.87 329.576 85.794C328.868 86.718 327.8 87.18 326.372 87.18ZM328.765 75.57V71.772H330.349V75.57H328.765ZM336.041 87V79.998C336.041 79.41 335.903 78.978 335.627 78.702C335.363 78.426 334.913 78.288 334.277 78.288C333.845 78.288 333.437 78.348 333.053 78.468C332.681 78.576 332.321 78.732 331.973 78.936V77.496C332.213 77.376 332.555 77.256 332.999 77.136C333.443 77.016 333.971 76.956 334.583 76.956C335.519 76.956 336.263 77.166 336.815 77.586C337.367 78.006 337.643 78.732 337.643 79.764V87H336.041ZM345.77 87V77.136H347.372V81.402H347.426L351.53 77.136H353.402V77.19L350.504 80.124C351.476 80.208 352.214 80.55 352.718 81.15C353.234 81.738 353.492 82.518 353.492 83.49V87H351.89V83.526C351.89 82.854 351.692 82.32 351.296 81.924C350.912 81.528 350.264 81.312 349.352 81.276L347.372 83.292V87H345.77ZM358.981 87V79.998C358.981 79.41 358.843 78.978 358.567 78.702C358.303 78.426 357.853 78.288 357.217 78.288C356.785 78.288 356.377 78.348 355.993 78.468C355.621 78.576 355.261 78.732 354.913 78.936V77.496C355.153 77.376 355.495 77.256 355.939 77.136C356.383 77.016 356.911 76.956 357.523 76.956C358.459 76.956 359.203 77.166 359.755 77.586C360.307 78.006 360.583 78.732 360.583 79.764V87H358.981ZM363.413 87V83.58C363.413 82.824 363.581 82.278 363.917 81.942C364.253 81.594 364.679 81.354 365.195 81.222L365.213 81.168L363.233 80.412V79.818C363.233 79.326 363.395 78.864 363.719 78.432C364.043 77.988 364.505 77.634 365.105 77.37C365.717 77.094 366.443 76.956 367.283 76.956C368.015 76.956 368.693 77.076 369.317 77.316C369.941 77.544 370.439 77.91 370.811 78.414C371.195 78.906 371.387 79.554 371.387 80.358V87H369.785V80.52C369.785 79.716 369.539 79.146 369.047 78.81C368.567 78.462 367.973 78.288 367.265 78.288C366.533 78.288 365.951 78.444 365.519 78.756C365.087 79.056 364.871 79.44 364.871 79.908L366.815 80.88L366.671 81.744C366.227 81.744 365.837 81.894 365.501 82.194C365.177 82.482 365.015 82.944 365.015 83.58V87H363.413ZM379.048 87.18C378.28 87.18 377.614 87.03 377.05 86.73C376.498 86.418 376.12 85.986 375.916 85.434H375.844L375.754 87H374.44V77.136H376.042V82.842C376.042 83.754 376.276 84.48 376.744 85.02C377.212 85.56 377.872 85.83 378.724 85.83C380.128 85.83 380.83 85.098 380.83 83.634V77.136H382.432V83.742C382.432 84.93 382.132 85.8 381.532 86.352C380.944 86.904 380.116 87.18 379.048 87.18ZM374.784 75.57V74.868L376.098 74.292H380.94V72.834H382.452V74.868H382.434V75.57H374.784ZM389.313 87.18C387.897 87.18 386.883 86.856 386.271 86.208C385.659 85.56 385.353 84.636 385.353 83.436V77.136H386.955V83.454C386.955 85.05 387.741 85.848 389.313 85.848C390.129 85.848 390.729 85.65 391.113 85.254C391.509 84.858 391.707 84.258 391.707 83.454V73.59H393.309V83.436C393.309 84.636 392.997 85.56 392.373 86.208C391.761 86.856 390.741 87.18 389.313 87.18ZM387.864 75.57C387.12 75.57 386.592 75.42 386.28 75.12C385.968 74.808 385.812 74.46 385.812 74.076C385.812 73.896 385.836 73.704 385.884 73.5C385.932 73.284 385.998 73.11 386.082 72.978L387.432 73.212C387.408 73.26 387.39 73.344 387.378 73.464C387.354 73.572 387.342 73.674 387.342 73.77C387.342 73.926 387.39 74.064 387.486 74.184C387.582 74.292 387.744 74.346 387.972 74.346H390.69V75.57H387.864ZM405.557 90.132C405.065 90.132 404.567 90.078 404.063 89.97C403.571 89.874 403.103 89.724 402.659 89.52V87.972C403.043 88.224 403.493 88.41 404.009 88.53C404.537 88.662 405.041 88.728 405.521 88.728C406.001 88.728 406.427 88.65 406.799 88.494C407.171 88.35 407.465 88.092 407.681 87.72C407.897 87.348 408.005 86.82 408.005 86.136V85.668H407.933C407.693 86.04 407.339 86.352 406.871 86.604C406.403 86.856 405.833 86.982 405.161 86.982C404.597 86.982 404.081 86.874 403.613 86.658C403.157 86.442 402.797 86.094 402.533 85.614C402.269 85.134 402.137 84.504 402.137 83.724V80.502C402.137 79.926 402.029 79.476 401.813 79.152C401.597 78.828 401.309 78.606 400.949 78.486C400.601 78.354 400.229 78.288 399.833 78.288C399.197 78.288 398.669 78.426 398.249 78.702C397.841 78.978 397.631 79.38 397.619 79.908L399.671 80.88L399.527 81.744C399.083 81.744 398.699 81.882 398.375 82.158C398.063 82.434 397.907 82.89 397.907 83.526V85.11C397.907 85.614 398.153 85.866 398.645 85.866C398.909 85.866 399.137 85.83 399.329 85.758L399.563 86.91C399.335 87.018 399.113 87.09 398.897 87.126C398.693 87.162 398.489 87.18 398.285 87.18C397.949 87.18 397.625 87.126 397.313 87.018C397.013 86.91 396.767 86.718 396.575 86.442C396.395 86.166 396.305 85.782 396.305 85.29V83.544C396.305 82.8 396.461 82.26 396.773 81.924C397.097 81.588 397.517 81.354 398.033 81.222L398.051 81.168L395.981 80.412V79.818C395.981 79.29 396.137 78.81 396.449 78.378C396.773 77.946 397.223 77.604 397.799 77.352C398.387 77.088 399.071 76.956 399.851 76.956C400.511 76.956 401.135 77.064 401.723 77.28C402.323 77.496 402.809 77.856 403.181 78.36C403.553 78.852 403.739 79.512 403.739 80.34V83.598C403.739 84.306 403.901 84.822 404.225 85.146C404.561 85.47 404.999 85.632 405.539 85.632C406.283 85.632 406.871 85.368 407.303 84.84C407.747 84.3 407.969 83.592 407.969 82.716V77.136H409.571V86.1C409.571 87.444 409.223 88.452 408.527 89.124C407.843 89.796 406.853 90.132 405.557 90.132ZM412.761 87V77.136H414.363V81.402H414.417L418.521 77.136H420.393V77.19L417.495 80.124C418.467 80.208 419.205 80.55 419.709 81.15C420.225 81.738 420.483 82.518 420.483 83.49V87H418.881V83.526C418.881 82.854 418.683 82.32 418.287 81.924C417.903 81.528 417.255 81.312 416.343 81.276L414.363 83.292V87H412.761ZM425.971 87V79.998C425.971 79.41 425.833 78.978 425.557 78.702C425.293 78.426 424.843 78.288 424.207 78.288C423.775 78.288 423.367 78.348 422.983 78.468C422.611 78.576 422.251 78.732 421.903 78.936V77.496C422.143 77.376 422.485 77.256 422.929 77.136C423.373 77.016 423.901 76.956 424.513 76.956C425.449 76.956 426.193 77.166 426.745 77.586C427.297 78.006 427.573 78.732 427.573 79.764V87H425.971ZM432.726 87.18C432.402 87.18 432.09 87.126 431.79 87.018C431.49 86.91 431.244 86.718 431.052 86.442C430.86 86.166 430.764 85.782 430.764 85.29V77.136H432.366V85.092C432.366 85.368 432.426 85.566 432.546 85.686C432.666 85.806 432.858 85.866 433.122 85.866C433.23 85.866 433.344 85.854 433.464 85.83C433.584 85.806 433.698 85.776 433.806 85.74L434.022 86.91C433.794 87.018 433.572 87.09 433.356 87.126C433.14 87.162 432.93 87.18 432.726 87.18ZM435.712 87V83.58C435.712 82.824 435.88 82.278 436.216 81.942C436.552 81.594 436.978 81.354 437.494 81.222L437.512 81.168L435.532 80.412V79.818C435.532 79.326 435.694 78.864 436.018 78.432C436.342 77.988 436.804 77.634 437.404 77.37C438.016 77.094 438.742 76.956 439.582 76.956C440.314 76.956 440.992 77.076 441.616 77.316C442.24 77.544 442.738 77.91 443.11 78.414C443.494 78.906 443.686 79.554 443.686 80.358V87H442.084V80.52C442.084 79.716 441.838 79.146 441.346 78.81C440.866 78.462 440.272 78.288 439.564 78.288C438.832 78.288 438.25 78.444 437.818 78.756C437.386 79.056 437.17 79.44 437.17 79.908L439.114 80.88L438.97 81.744C438.526 81.744 438.136 81.894 437.8 82.194C437.476 82.482 437.314 82.944 437.314 83.58V87H435.712ZM435.85 75.57V74.868L437.164 74.292H442.006V72.834H443.518V74.868H443.5V75.57H435.85ZM441.988 71.772V68.838H443.518V71.772H441.988ZM450.393 87.162C448.941 87.162 447.915 86.886 447.315 86.334C446.715 85.782 446.415 85.038 446.415 84.102C446.415 83.55 446.493 83.112 446.649 82.788C446.817 82.452 447.021 82.206 447.261 82.05C447.513 81.894 447.771 81.792 448.035 81.744V81.672C447.795 81.6 447.543 81.48 447.279 81.312C447.015 81.144 446.793 80.91 446.613 80.61C446.445 80.31 446.361 79.932 446.361 79.476C446.361 79.056 446.457 78.66 446.649 78.288C446.841 77.916 447.153 77.61 447.585 77.37C448.017 77.13 448.587 77.01 449.295 77.01C449.583 77.01 449.883 77.034 450.195 77.082C450.507 77.118 450.747 77.184 450.915 77.28L450.627 78.522C450.495 78.474 450.321 78.432 450.105 78.396C449.901 78.348 449.685 78.324 449.457 78.324C448.953 78.324 448.581 78.444 448.341 78.684C448.101 78.912 447.981 79.218 447.981 79.602C447.981 80.022 448.083 80.34 448.287 80.556C448.503 80.772 448.773 80.922 449.097 81.006C449.433 81.078 449.781 81.114 450.141 81.114H450.483V82.284H450.141C449.421 82.284 448.887 82.416 448.539 82.68C448.203 82.932 448.035 83.358 448.035 83.958C448.035 84.306 448.101 84.624 448.233 84.912C448.377 85.2 448.617 85.428 448.953 85.596C449.301 85.764 449.781 85.848 450.393 85.848C451.305 85.848 451.929 85.662 452.265 85.29C452.601 84.906 452.769 84.384 452.769 83.724V77.136H454.371V83.616C454.371 84.876 454.047 85.782 453.399 86.334C452.763 86.886 451.761 87.162 450.393 87.162ZM459.263 87.18C458.795 87.18 458.339 87.132 457.895 87.036C457.463 86.94 457.001 86.76 456.509 86.496L457.013 85.272C457.277 85.428 457.577 85.566 457.913 85.686C458.249 85.794 458.639 85.848 459.083 85.848C459.971 85.848 460.661 85.524 461.153 84.876C461.657 84.216 461.909 83.268 461.909 82.032C461.909 80.82 461.651 79.896 461.135 79.26C460.631 78.612 459.851 78.288 458.795 78.288C458.411 78.288 458.021 78.33 457.625 78.414C457.229 78.498 456.881 78.624 456.581 78.792V77.442C456.929 77.262 457.307 77.136 457.715 77.064C458.135 76.992 458.555 76.956 458.975 76.956C460.055 76.956 460.931 77.172 461.603 77.604C462.275 78.024 462.767 78.612 463.079 79.368C463.391 80.124 463.547 81.012 463.547 82.032C463.547 83.616 463.187 84.87 462.467 85.794C461.759 86.718 460.691 87.18 459.263 87.18ZM466.052 87V83.58C466.052 82.824 466.22 82.278 466.556 81.942C466.892 81.594 467.318 81.354 467.834 81.222L467.852 81.168L465.872 80.412V79.818C465.872 79.326 466.034 78.864 466.358 78.432C466.682 77.988 467.144 77.634 467.744 77.37C468.356 77.094 469.082 76.956 469.922 76.956C470.654 76.956 471.332 77.076 471.956 77.316C472.58 77.544 473.078 77.91 473.45 78.414C473.834 78.906 474.026 79.554 474.026 80.358V87H472.424V80.52C472.424 79.716 472.178 79.146 471.686 78.81C471.206 78.462 470.612 78.288 469.904 78.288C469.172 78.288 468.59 78.444 468.158 78.756C467.726 79.056 467.51 79.44 467.51 79.908L469.454 80.88L469.31 81.744C468.866 81.744 468.476 81.894 468.14 82.194C467.816 82.482 467.654 82.944 467.654 83.58V87H466.052ZM471.554 75.57C470.798 75.57 470.264 75.42 469.952 75.12C469.64 74.808 469.484 74.46 469.484 74.076C469.484 73.896 469.514 73.704 469.574 73.5C469.622 73.284 469.688 73.11 469.772 72.978L471.122 73.212C471.05 73.356 471.014 73.542 471.014 73.77C471.014 73.926 471.062 74.064 471.158 74.184C471.254 74.292 471.416 74.346 471.644 74.346H476.198V75.57H471.554ZM480.895 87.18C479.479 87.18 478.465 86.856 477.853 86.208C477.241 85.56 476.935 84.636 476.935 83.436V77.136H478.537V83.454C478.537 85.05 479.323 85.848 480.895 85.848C481.711 85.848 482.311 85.65 482.695 85.254C483.091 84.858 483.289 84.258 483.289 83.454V77.136H484.891V83.436C484.891 84.636 484.579 85.56 483.955 86.208C483.343 86.856 482.323 87.18 480.895 87.18ZM487.708 87V83.58C487.708 82.824 487.876 82.278 488.212 81.942C488.548 81.594 488.974 81.354 489.49 81.222L489.508 81.168L487.528 80.412V79.818C487.528 79.326 487.69 78.864 488.014 78.432C488.338 77.988 488.8 77.634 489.4 77.37C490.012 77.094 490.738 76.956 491.578 76.956C492.31 76.956 492.988 77.076 493.612 77.316C494.236 77.544 494.734 77.91 495.106 78.414C495.49 78.906 495.682 79.554 495.682 80.358V87H494.08V80.52C494.08 79.716 493.834 79.146 493.342 78.81C492.862 78.462 492.268 78.288 491.56 78.288C490.828 78.288 490.246 78.444 489.814 78.756C489.382 79.056 489.166 79.44 489.166 79.908L491.11 80.88L490.966 81.744C490.522 81.744 490.132 81.894 489.796 82.194C489.472 82.482 489.31 82.944 489.31 83.58V87H487.708ZM501.381 87V79.998C501.381 79.41 501.243 78.978 500.967 78.702C500.703 78.426 500.253 78.288 499.617 78.288C499.185 78.288 498.777 78.348 498.393 78.468C498.021 78.576 497.661 78.732 497.313 78.936V77.496C497.553 77.376 497.895 77.256 498.339 77.136C498.783 77.016 499.311 76.956 499.923 76.956C500.859 76.956 501.603 77.166 502.155 77.586C502.707 78.006 502.983 78.732 502.983 79.764V87H501.381ZM508.676 87.18C507.968 87.18 507.308 87.114 506.696 86.982C506.096 86.838 505.586 86.67 505.166 86.478L505.634 85.182C506.018 85.338 506.474 85.488 507.002 85.632C507.542 85.776 508.112 85.848 508.712 85.848C509.348 85.848 509.876 85.728 510.296 85.488C510.716 85.248 510.926 84.9 510.926 84.444C510.926 84.036 510.758 83.7 510.422 83.436C510.086 83.172 509.546 82.926 508.802 82.698C508.046 82.458 507.404 82.206 506.876 81.942C506.36 81.666 505.964 81.342 505.688 80.97C505.424 80.586 505.292 80.112 505.292 79.548C505.292 78.804 505.598 78.186 506.21 77.694C506.822 77.202 507.8 76.956 509.144 76.956C509.72 76.956 510.26 77.01 510.764 77.118C511.28 77.214 511.682 77.352 511.97 77.532V78.882C511.67 78.738 511.256 78.6 510.728 78.468C510.2 78.336 509.654 78.27 509.09 78.27C508.286 78.27 507.716 78.396 507.38 78.648C507.056 78.888 506.894 79.164 506.894 79.476C506.894 79.74 506.966 79.962 507.11 80.142C507.266 80.322 507.524 80.496 507.884 80.664C508.256 80.832 508.754 81.024 509.378 81.24C509.954 81.432 510.482 81.654 510.962 81.906C511.442 82.158 511.82 82.476 512.096 82.86C512.384 83.232 512.528 83.712 512.528 84.3C512.528 84.804 512.402 85.278 512.15 85.722C511.91 86.154 511.508 86.508 510.944 86.784C510.38 87.048 509.624 87.18 508.676 87.18ZM516.925 87.18C516.601 87.18 516.289 87.126 515.989 87.018C515.689 86.91 515.443 86.718 515.251 86.442C515.059 86.166 514.963 85.782 514.963 85.29V77.136H516.565V85.092C516.565 85.368 516.625 85.566 516.745 85.686C516.865 85.806 517.057 85.866 517.321 85.866C517.429 85.866 517.543 85.854 517.663 85.83C517.783 85.806 517.897 85.776 518.005 85.74L518.221 86.91C517.993 87.018 517.771 87.09 517.555 87.126C517.339 87.162 517.129 87.18 516.925 87.18ZM523.265 87.18C522.137 87.18 521.261 86.91 520.637 86.37C520.025 85.818 519.719 84.996 519.719 83.904V82.806C519.719 82.206 519.803 81.732 519.971 81.384C520.139 81.036 520.319 80.736 520.511 80.484C520.715 80.208 520.889 79.968 521.033 79.764C521.189 79.56 521.267 79.314 521.267 79.026C521.267 78.774 521.201 78.594 521.069 78.486C520.949 78.378 520.793 78.324 520.601 78.324C520.457 78.324 520.301 78.348 520.133 78.396C519.977 78.444 519.821 78.504 519.665 78.576L519.305 77.424C519.521 77.28 519.785 77.178 520.097 77.118C520.421 77.058 520.703 77.028 520.943 77.028C521.615 77.028 522.089 77.202 522.365 77.55C522.641 77.886 522.779 78.318 522.779 78.846C522.779 79.29 522.701 79.656 522.545 79.944C522.401 80.232 522.227 80.514 522.023 80.79C521.819 81.09 521.651 81.378 521.519 81.654C521.387 81.93 521.321 82.29 521.321 82.734V83.796C521.321 84.348 521.411 84.774 521.591 85.074C521.771 85.374 522.011 85.584 522.311 85.704C522.611 85.812 522.929 85.866 523.265 85.866C524.501 85.866 525.119 85.29 525.119 84.138V77.136H526.721V84.228C526.721 85.152 526.427 85.878 525.839 86.406C525.263 86.922 524.405 87.18 523.265 87.18ZM519.047 75.57V74.868L520.361 74.292H525.203V72.834H526.715V74.868H526.697V75.57H519.047ZM533.432 87.162C531.98 87.162 530.954 86.886 530.354 86.334C529.754 85.782 529.454 85.038 529.454 84.102C529.454 83.55 529.532 83.112 529.688 82.788C529.856 82.452 530.06 82.206 530.3 82.05C530.552 81.894 530.81 81.792 531.074 81.744V81.672C530.834 81.6 530.582 81.48 530.318 81.312C530.054 81.144 529.832 80.91 529.652 80.61C529.484 80.31 529.4 79.932 529.4 79.476C529.4 79.056 529.496 78.66 529.688 78.288C529.88 77.916 530.192 77.61 530.624 77.37C531.056 77.13 531.626 77.01 532.334 77.01C532.622 77.01 532.922 77.034 533.234 77.082C533.546 77.118 533.786 77.184 533.954 77.28L533.666 78.522C533.534 78.474 533.36 78.432 533.144 78.396C532.94 78.348 532.724 78.324 532.496 78.324C531.992 78.324 531.62 78.444 531.38 78.684C531.14 78.912 531.02 79.218 531.02 79.602C531.02 80.022 531.122 80.34 531.326 80.556C531.542 80.772 531.812 80.922 532.136 81.006C532.472 81.078 532.82 81.114 533.18 81.114H533.522V82.284H533.18C532.46 82.284 531.926 82.416 531.578 82.68C531.242 82.932 531.074 83.358 531.074 83.958C531.074 84.306 531.14 84.624 531.272 84.912C531.416 85.2 531.656 85.428 531.992 85.596C532.34 85.764 532.82 85.848 533.432 85.848C534.344 85.848 534.968 85.662 535.304 85.29C535.64 84.906 535.808 84.384 535.808 83.724V77.136H537.41V83.616C537.41 84.876 537.086 85.782 536.438 86.334C535.802 86.886 534.8 87.162 533.432 87.162ZM543.724 87.18C542.668 87.18 541.834 86.904 541.222 86.352C540.622 85.8 540.322 84.924 540.322 83.724V77.136H541.924V83.634C541.924 85.098 542.638 85.83 544.066 85.83C544.906 85.83 545.554 85.56 546.01 85.02C546.478 84.48 546.712 83.754 546.712 82.842V77.136H548.314V87H546.982L546.91 85.542H546.82C546.604 86.022 546.226 86.418 545.686 86.73C545.158 87.03 544.504 87.18 543.724 87.18ZM553.845 87.18C553.521 87.18 553.209 87.126 552.909 87.018C552.609 86.91 552.363 86.718 552.171 86.442C551.979 86.166 551.883 85.782 551.883 85.29V75.408C551.883 74.688 551.709 74.172 551.361 73.86C551.025 73.548 550.593 73.392 550.065 73.392V72.708L551.397 72.132H556.203V73.392H552.549L552.531 73.464C552.795 73.644 553.017 73.92 553.197 74.292C553.389 74.652 553.485 75.126 553.485 75.714V85.092C553.485 85.368 553.545 85.566 553.665 85.686C553.785 85.806 553.977 85.866 554.241 85.866C554.349 85.866 554.463 85.854 554.583 85.83C554.703 85.806 554.817 85.776 554.925 85.74L555.141 86.91C554.913 87.018 554.691 87.09 554.475 87.126C554.259 87.162 554.049 87.18 553.845 87.18ZM556.722 87V80.7C556.722 79.488 557.046 78.564 557.694 77.928C558.342 77.28 559.374 76.956 560.79 76.956C562.218 76.956 563.25 77.28 563.886 77.928C564.534 78.564 564.858 79.488 564.858 80.7V87H563.256V80.7C563.256 79.092 562.428 78.288 560.772 78.288C559.14 78.288 558.324 79.092 558.324 80.7V82.698L558.378 82.716C558.642 82.248 558.966 81.942 559.35 81.798C559.734 81.642 560.274 81.564 560.97 81.564H561.564V82.878H560.97C560.238 82.878 559.68 82.98 559.296 83.184C558.924 83.388 558.666 83.658 558.522 83.994C558.39 84.318 558.324 84.684 558.324 85.092V87H556.722ZM559.644 75.57V74.778C559.884 74.73 560.13 74.664 560.382 74.58C560.634 74.484 560.844 74.364 561.012 74.22C561.18 74.064 561.264 73.878 561.264 73.662C561.264 73.518 561.222 73.398 561.138 73.302C561.042 73.194 560.898 73.14 560.706 73.14C560.586 73.14 560.466 73.164 560.346 73.212C560.214 73.26 560.1 73.302 560.004 73.338L559.644 72.348C559.884 72.156 560.154 72.03 560.454 71.97C560.742 71.91 560.976 71.88 561.156 71.88C561.636 71.88 562.014 72.012 562.29 72.276C562.554 72.54 562.686 72.876 562.686 73.284C562.686 73.488 562.65 73.68 562.578 73.86C562.506 74.028 562.416 74.178 562.308 74.31H565.224V75.57H559.644ZM571.145 87.18C570.185 87.18 569.429 86.958 568.877 86.514C568.337 86.058 567.953 85.446 567.725 84.678C567.509 83.91 567.401 83.064 567.401 82.14C567.401 80.784 567.587 79.734 567.959 78.99C568.331 78.234 568.847 77.706 569.507 77.406C570.179 77.106 570.953 76.956 571.829 76.956C573.269 76.956 574.313 77.268 574.961 77.892C575.621 78.516 575.951 79.362 575.951 80.43V87H574.367V80.574C574.367 79.83 574.181 79.266 573.809 78.882C573.437 78.486 572.795 78.288 571.883 78.288C571.331 78.288 570.833 78.39 570.389 78.594C569.957 78.798 569.615 79.176 569.363 79.728C569.123 80.28 569.003 81.09 569.003 82.158C569.003 82.854 569.069 83.484 569.201 84.048C569.345 84.6 569.591 85.038 569.939 85.362C570.287 85.686 570.773 85.848 571.397 85.848C571.577 85.848 571.745 85.836 571.901 85.812C572.057 85.788 572.207 85.752 572.351 85.704L572.513 86.946C572.321 87.03 572.099 87.09 571.847 87.126C571.607 87.162 571.373 87.18 571.145 87.18ZM586.615 87.18C585.559 87.18 584.749 86.94 584.185 86.46C583.633 85.968 583.357 85.266 583.357 84.354C583.357 83.358 583.717 82.59 584.437 82.05C585.169 81.51 586.351 81.192 587.983 81.096L589.711 80.988V80.43C589.711 79.65 589.531 79.098 589.171 78.774C588.823 78.438 588.235 78.27 587.407 78.27C586.807 78.27 586.231 78.354 585.679 78.522C585.139 78.678 584.623 78.9 584.131 79.188V77.694C584.479 77.514 584.947 77.346 585.535 77.19C586.135 77.034 586.807 76.956 587.551 76.956C588.031 76.956 588.457 76.998 588.829 77.082C589.213 77.166 589.531 77.31 589.783 77.514C589.987 77.418 590.161 77.286 590.305 77.118C590.449 76.95 590.521 76.74 590.521 76.488H592.087C592.087 76.944 591.955 77.328 591.691 77.64C591.439 77.952 591.115 78.192 590.719 78.36C590.923 78.576 591.067 78.852 591.151 79.188C591.247 79.524 591.295 79.908 591.295 80.34V87H589.711V82.32L588.199 82.428C586.975 82.512 586.129 82.704 585.661 83.004C585.205 83.304 584.977 83.742 584.977 84.318C584.977 84.858 585.145 85.254 585.481 85.506C585.829 85.758 586.309 85.884 586.921 85.884C587.317 85.884 587.665 85.83 587.965 85.722L588.217 86.928C587.989 87.012 587.737 87.072 587.461 87.108C587.197 87.156 586.915 87.18 586.615 87.18ZM597.024 87V79.998C597.024 79.41 596.886 78.978 596.61 78.702C596.346 78.426 595.896 78.288 595.26 78.288C594.828 78.288 594.42 78.348 594.036 78.468C593.664 78.576 593.304 78.732 592.956 78.936V77.496C593.196 77.376 593.538 77.256 593.982 77.136C594.426 77.016 594.954 76.956 595.566 76.956C596.502 76.956 597.246 77.166 597.798 77.586C598.35 78.006 598.626 78.732 598.626 79.764V87H597.024ZM606.298 87.18C605.53 87.18 604.864 87.03 604.3 86.73C603.748 86.418 603.37 85.986 603.166 85.434H603.094L603.004 87H601.69V77.136H603.292V82.842C603.292 83.754 603.526 84.48 603.994 85.02C604.462 85.56 605.122 85.83 605.974 85.83C607.378 85.83 608.08 85.098 608.08 83.634V77.136H609.682V83.742C609.682 84.93 609.382 85.8 608.782 86.352C608.194 86.904 607.366 87.18 606.298 87.18ZM615.393 87V79.998C615.393 79.41 615.255 78.978 614.979 78.702C614.715 78.426 614.265 78.288 613.629 78.288C613.197 78.288 612.789 78.348 612.405 78.468C612.033 78.576 611.673 78.732 611.325 78.936V77.496C611.565 77.376 611.907 77.256 612.351 77.136C612.795 77.016 613.323 76.956 613.935 76.956C614.871 76.956 615.615 77.166 616.167 77.586C616.719 78.006 616.995 78.732 616.995 79.764V87H615.393ZM622.688 87.18C621.98 87.18 621.32 87.114 620.708 86.982C620.108 86.838 619.598 86.67 619.178 86.478L619.646 85.182C620.03 85.338 620.486 85.488 621.014 85.632C621.554 85.776 622.124 85.848 622.724 85.848C623.36 85.848 623.888 85.728 624.308 85.488C624.728 85.248 624.938 84.9 624.938 84.444C624.938 84.036 624.77 83.7 624.434 83.436C624.098 83.172 623.558 82.926 622.814 82.698C622.058 82.458 621.416 82.206 620.888 81.942C620.372 81.666 619.976 81.342 619.7 80.97C619.436 80.586 619.304 80.112 619.304 79.548C619.304 78.804 619.61 78.186 620.222 77.694C620.834 77.202 621.812 76.956 623.156 76.956C623.732 76.956 624.272 77.01 624.776 77.118C625.292 77.214 625.694 77.352 625.982 77.532V78.882C625.682 78.738 625.268 78.6 624.74 78.468C624.212 78.336 623.666 78.27 623.102 78.27C622.298 78.27 621.728 78.396 621.392 78.648C621.068 78.888 620.906 79.164 620.906 79.476C620.906 79.74 620.978 79.962 621.122 80.142C621.278 80.322 621.536 80.496 621.896 80.664C622.268 80.832 622.766 81.024 623.39 81.24C623.966 81.432 624.494 81.654 624.974 81.906C625.454 82.158 625.832 82.476 626.108 82.86C626.396 83.232 626.54 83.712 626.54 84.3C626.54 84.804 626.414 85.278 626.162 85.722C625.922 86.154 625.52 86.508 624.956 86.784C624.392 87.048 623.636 87.18 622.688 87.18ZM630.739 87.18C630.403 87.18 630.079 87.126 629.767 87.018C629.467 86.91 629.221 86.718 629.029 86.442C628.849 86.166 628.759 85.782 628.759 85.29V83.544C628.759 82.8 628.915 82.26 629.227 81.924C629.551 81.588 629.971 81.354 630.487 81.222L630.505 81.168L628.435 80.412V79.818C628.435 79.326 628.597 78.864 628.921 78.432C629.245 77.988 629.707 77.634 630.307 77.37C630.919 77.094 631.651 76.956 632.503 76.956C633.247 76.956 633.931 77.076 634.555 77.316C635.179 77.544 635.677 77.91 636.049 78.414C636.433 78.906 636.625 79.554 636.625 80.358V87H635.023V80.52C635.023 79.716 634.777 79.146 634.285 78.81C633.793 78.462 633.193 78.288 632.485 78.288C631.741 78.288 631.153 78.444 630.721 78.756C630.289 79.056 630.073 79.44 630.073 79.908L632.125 80.88L631.981 81.744C631.537 81.756 631.153 81.87 630.829 82.086C630.517 82.29 630.361 82.71 630.361 83.346V85.11C630.361 85.614 630.613 85.866 631.117 85.866C631.369 85.866 631.591 85.83 631.783 85.758L632.017 86.91C631.789 87.018 631.567 87.09 631.351 87.126C631.147 87.162 630.943 87.18 630.739 87.18ZM640.595 87L638.813 77.136H640.451L641.153 81.42C641.213 81.768 641.273 82.218 641.333 82.77C641.393 83.322 641.465 83.976 641.549 84.732H641.603C641.759 83.964 641.909 83.304 642.053 82.752C642.209 82.2 642.341 81.738 642.449 81.366L643.655 77.136H644.969L646.193 81.366C646.301 81.738 646.427 82.2 646.571 82.752C646.727 83.304 646.883 83.964 647.039 84.732H647.111C647.183 83.976 647.249 83.322 647.309 82.77C647.369 82.218 647.429 81.768 647.489 81.42L648.209 77.136H649.847L648.065 87H646.499L644.843 81.636C644.759 81.336 644.675 81.024 644.591 80.7C644.519 80.376 644.447 79.95 644.375 79.422H644.303C644.219 79.95 644.135 80.382 644.051 80.718C643.967 81.042 643.877 81.348 643.781 81.636L642.161 87H640.595ZM645.717 91.77C644.949 91.77 644.367 91.614 643.971 91.302C643.563 91.002 643.359 90.57 643.359 90.006V89.7C643.359 89.496 643.311 89.37 643.215 89.322C643.107 89.286 642.963 89.292 642.783 89.34L642.675 88.26C642.843 88.212 643.011 88.182 643.179 88.17C643.335 88.158 643.455 88.152 643.539 88.152C643.971 88.152 644.283 88.248 644.475 88.44C644.655 88.632 644.745 88.902 644.745 89.25V89.862C644.745 90.09 644.817 90.282 644.961 90.438C645.105 90.594 645.351 90.672 645.699 90.672C646.059 90.672 646.311 90.594 646.455 90.438C646.587 90.282 646.653 90.09 646.653 89.862V88.206H648.057V89.952C648.057 91.164 647.277 91.77 645.717 91.77ZM655.414 87.18C654.454 87.18 653.698 86.958 653.146 86.514C652.606 86.058 652.222 85.446 651.994 84.678C651.778 83.91 651.67 83.064 651.67 82.14C651.67 80.784 651.856 79.734 652.228 78.99C652.6 78.234 653.116 77.706 653.776 77.406C654.448 77.106 655.222 76.956 656.098 76.956C657.538 76.956 658.582 77.268 659.23 77.892C659.89 78.516 660.22 79.362 660.22 80.43V87H658.636V80.574C658.636 79.83 658.45 79.266 658.078 78.882C657.706 78.486 657.064 78.288 656.152 78.288C655.6 78.288 655.102 78.39 654.658 78.594C654.226 78.798 653.884 79.176 653.632 79.728C653.392 80.28 653.272 81.09 653.272 82.158C653.272 82.854 653.338 83.484 653.47 84.048C653.614 84.6 653.86 85.038 654.208 85.362C654.556 85.686 655.042 85.848 655.666 85.848C655.846 85.848 656.014 85.836 656.17 85.812C656.326 85.788 656.476 85.752 656.62 85.704L656.782 86.946C656.59 87.03 656.368 87.09 656.116 87.126C655.876 87.162 655.642 87.18 655.414 87.18ZM663.14 87V80.7C663.14 79.488 663.464 78.564 664.112 77.928C664.76 77.28 665.792 76.956 667.208 76.956C668.636 76.956 669.668 77.28 670.304 77.928C670.952 78.564 671.276 79.488 671.276 80.7V87H669.674V80.7C669.674 79.092 668.846 78.288 667.19 78.288C665.558 78.288 664.742 79.092 664.742 80.7V82.698L664.796 82.716C665.06 82.248 665.384 81.942 665.768 81.798C666.152 81.642 666.692 81.564 667.388 81.564H667.982V82.878H667.388C666.656 82.878 666.098 82.98 665.714 83.184C665.342 83.388 665.084 83.658 664.94 83.994C664.808 84.318 664.742 84.684 664.742 85.092V87H663.14ZM669.837 91.698V89.79C669.837 89.49 669.705 89.34 669.441 89.34C669.381 89.34 669.321 89.346 669.261 89.358C669.189 89.37 669.123 89.388 669.063 89.412L668.937 88.332C669.117 88.272 669.315 88.224 669.531 88.188C669.735 88.164 669.903 88.152 670.035 88.152C670.455 88.152 670.767 88.248 670.971 88.44C671.163 88.644 671.259 88.92 671.259 89.268V91.698H669.837ZM677.995 87.162C676.543 87.162 675.517 86.886 674.917 86.334C674.317 85.782 674.017 85.038 674.017 84.102C674.017 83.55 674.095 83.112 674.251 82.788C674.419 82.452 674.623 82.206 674.863 82.05C675.115 81.894 675.373 81.792 675.637 81.744V81.672C675.397 81.6 675.145 81.48 674.881 81.312C674.617 81.144 674.395 80.91 674.215 80.61C674.047 80.31 673.963 79.932 673.963 79.476C673.963 79.056 674.059 78.66 674.251 78.288C674.443 77.916 674.755 77.61 675.187 77.37C675.619 77.13 676.189 77.01 676.897 77.01C677.185 77.01 677.485 77.034 677.797 77.082C678.109 77.118 678.349 77.184 678.517 77.28L678.229 78.522C678.097 78.474 677.923 78.432 677.707 78.396C677.503 78.348 677.287 78.324 677.059 78.324C676.555 78.324 676.183 78.444 675.943 78.684C675.703 78.912 675.583 79.218 675.583 79.602C675.583 80.022 675.685 80.34 675.889 80.556C676.105 80.772 676.375 80.922 676.699 81.006C677.035 81.078 677.383 81.114 677.743 81.114H678.085V82.284H677.743C677.023 82.284 676.489 82.416 676.141 82.68C675.805 82.932 675.637 83.358 675.637 83.958C675.637 84.306 675.703 84.624 675.835 84.912C675.979 85.2 676.219 85.428 676.555 85.596C676.903 85.764 677.383 85.848 677.995 85.848C678.907 85.848 679.531 85.662 679.867 85.29C680.203 84.906 680.371 84.384 680.371 83.724V77.136H681.973V83.616C681.973 84.876 681.649 85.782 681.001 86.334C680.365 86.886 679.363 87.162 677.995 87.162ZM687.566 87.18C686.51 87.18 685.7 86.94 685.136 86.46C684.584 85.968 684.308 85.266 684.308 84.354C684.308 83.358 684.668 82.59 685.388 82.05C686.12 81.51 687.302 81.192 688.934 81.096L690.662 80.988V80.43C690.662 79.65 690.482 79.098 690.122 78.774C689.774 78.438 689.186 78.27 688.358 78.27C687.758 78.27 687.182 78.354 686.63 78.522C686.09 78.678 685.574 78.9 685.082 79.188V77.694C685.43 77.514 685.898 77.346 686.486 77.19C687.086 77.034 687.758 76.956 688.502 76.956C688.982 76.956 689.408 76.998 689.78 77.082C690.164 77.166 690.482 77.31 690.734 77.514C690.938 77.418 691.112 77.286 691.256 77.118C691.4 76.95 691.472 76.74 691.472 76.488H693.038C693.038 76.944 692.906 77.328 692.642 77.64C692.39 77.952 692.066 78.192 691.67 78.36C691.874 78.576 692.018 78.852 692.102 79.188C692.198 79.524 692.246 79.908 692.246 80.34V87H690.662V82.32L689.15 82.428C687.926 82.512 687.08 82.704 686.612 83.004C686.156 83.304 685.928 83.742 685.928 84.318C685.928 84.858 686.096 85.254 686.432 85.506C686.78 85.758 687.26 85.884 687.872 85.884C688.268 85.884 688.616 85.83 688.916 85.722L689.168 86.928C688.94 87.012 688.688 87.072 688.412 87.108C688.148 87.156 687.866 87.18 687.566 87.18ZM698.677 87.18C697.381 87.18 696.409 86.844 695.761 86.172C695.125 85.488 694.807 84.42 694.807 82.968C694.807 82.728 694.813 82.47 694.825 82.194C694.849 81.906 694.873 81.624 694.897 81.348H698.677V82.608H696.409V82.968C696.409 83.724 696.493 84.318 696.661 84.75C696.829 85.17 697.075 85.464 697.399 85.632C697.735 85.8 698.149 85.884 698.641 85.884C699.181 85.884 699.649 85.782 700.045 85.578C700.441 85.374 700.747 85.002 700.963 84.462C701.179 83.922 701.287 83.148 701.287 82.14C701.287 80.82 701.059 79.848 700.603 79.224C700.159 78.6 699.385 78.288 698.281 78.288C697.705 78.288 697.153 78.366 696.625 78.522C696.109 78.666 695.611 78.876 695.131 79.152V77.658C695.491 77.466 695.965 77.304 696.553 77.172C697.141 77.028 697.783 76.956 698.479 76.956C699.535 76.956 700.387 77.172 701.035 77.604C701.695 78.024 702.175 78.624 702.475 79.404C702.775 80.172 702.925 81.084 702.925 82.14C702.925 83.196 702.787 84.102 702.511 84.858C702.235 85.614 701.785 86.19 701.161 86.586C700.549 86.982 699.721 87.18 698.677 87.18ZM709.481 87.18C708.065 87.18 707.051 86.856 706.439 86.208C705.827 85.56 705.521 84.636 705.521 83.436V77.136H707.123V83.454C707.123 85.05 707.909 85.848 709.481 85.848C710.297 85.848 710.897 85.65 711.281 85.254C711.677 84.858 711.875 84.258 711.875 83.454V77.136H713.477V83.436C713.477 84.636 713.165 85.56 712.541 86.208C711.929 86.856 710.909 87.18 709.481 87.18ZM718.418 87.18C718.082 87.18 717.758 87.126 717.446 87.018C717.146 86.91 716.9 86.718 716.708 86.442C716.528 86.166 716.438 85.782 716.438 85.29V83.544C716.438 82.8 716.594 82.26 716.906 81.924C717.23 81.588 717.65 81.354 718.166 81.222L718.184 81.168L716.114 80.412V79.818C716.114 79.326 716.276 78.864 716.6 78.432C716.924 77.988 717.386 77.634 717.986 77.37C718.598 77.094 719.33 76.956 720.182 76.956C720.926 76.956 721.61 77.076 722.234 77.316C722.858 77.544 723.356 77.91 723.728 78.414C724.112 78.906 724.304 79.554 724.304 80.358V87H722.702V80.52C722.702 79.716 722.456 79.146 721.964 78.81C721.472 78.462 720.872 78.288 720.164 78.288C719.42 78.288 718.832 78.444 718.4 78.756C717.968 79.056 717.752 79.44 717.752 79.908L719.804 80.88L719.66 81.744C719.216 81.756 718.832 81.87 718.508 82.086C718.196 82.29 718.04 82.71 718.04 83.346V85.11C718.04 85.614 718.292 85.866 718.796 85.866C719.048 85.866 719.27 85.83 719.462 85.758L719.696 86.91C719.468 87.018 719.246 87.09 719.03 87.126C718.826 87.162 718.622 87.18 718.418 87.18ZM730.002 87V79.998C730.002 79.41 729.864 78.978 729.588 78.702C729.324 78.426 728.874 78.288 728.238 78.288C727.806 78.288 727.398 78.348 727.014 78.468C726.642 78.576 726.282 78.732 725.934 78.936V77.496C726.174 77.376 726.516 77.256 726.96 77.136C727.404 77.016 727.932 76.956 728.544 76.956C729.48 76.956 730.224 77.166 730.776 77.586C731.328 78.006 731.604 78.732 731.604 79.764V87H730.002ZM739.277 87.18C738.509 87.18 737.843 87.03 737.279 86.73C736.727 86.418 736.349 85.986 736.145 85.434H736.073L735.983 87H734.669V77.136H736.271V82.842C736.271 83.754 736.505 84.48 736.973 85.02C737.441 85.56 738.101 85.83 738.953 85.83C740.357 85.83 741.059 85.098 741.059 83.634V77.136H742.661V83.742C742.661 84.93 742.361 85.8 741.761 86.352C741.173 86.904 740.345 87.18 739.277 87.18ZM745.492 87V83.58C745.492 82.824 745.66 82.278 745.996 81.942C746.332 81.594 746.758 81.354 747.274 81.222L747.292 81.168L745.312 80.412V79.818C745.312 79.326 745.474 78.864 745.798 78.432C746.122 77.988 746.584 77.634 747.184 77.37C747.796 77.094 748.522 76.956 749.362 76.956C750.094 76.956 750.772 77.076 751.396 77.316C752.02 77.544 752.518 77.91 752.89 78.414C753.274 78.906 753.466 79.554 753.466 80.358V87H751.864V80.52C751.864 79.716 751.618 79.146 751.126 78.81C750.646 78.462 750.052 78.288 749.344 78.288C748.612 78.288 748.03 78.444 747.598 78.756C747.166 79.056 746.95 79.44 746.95 79.908L748.894 80.88L748.75 81.744C748.306 81.744 747.916 81.894 747.58 82.194C747.256 82.482 747.094 82.944 747.094 83.58V87H745.492ZM750.993 75.57C750.237 75.57 749.703 75.42 749.391 75.12C749.079 74.808 748.923 74.46 748.923 74.076C748.923 73.896 748.953 73.704 749.013 73.5C749.061 73.284 749.127 73.11 749.211 72.978L750.561 73.212C750.489 73.356 750.453 73.542 750.453 73.77C750.453 73.926 750.501 74.064 750.597 74.184C750.693 74.292 750.855 74.346 751.083 74.346H755.637V75.57H750.993ZM760.335 87.18C758.919 87.18 757.905 86.856 757.293 86.208C756.681 85.56 756.375 84.636 756.375 83.436V77.136H757.977V83.454C757.977 85.05 758.763 85.848 760.335 85.848C761.151 85.848 761.751 85.65 762.135 85.254C762.531 84.858 762.729 84.258 762.729 83.454V77.136H764.331V83.436C764.331 84.636 764.019 85.56 763.395 86.208C762.783 86.856 761.763 87.18 760.335 87.18ZM783.473 80.4545C783.473 76.3125 781.044 73.7301 777.695 73.7301C774.345 73.7301 771.916 76.3125 771.916 80.4545C771.916 84.5966 774.345 87.179 777.695 87.179C781.044 87.179 783.473 84.5966 783.473 80.4545ZM781.939 80.4545C781.939 83.8551 780.072 85.696 777.695 85.696C775.317 85.696 773.45 83.8551 773.45 80.4545C773.45 77.054 775.317 75.2131 777.695 75.2131C780.072 75.2131 781.939 77.054 781.939 80.4545ZM790.306 77.1818H788.107V76.1847C788.107 75.2131 788.516 74.7017 789.513 74.7017C789.948 74.7017 790.204 74.804 790.357 74.8551L790.792 73.5511C790.562 73.4489 790.102 73.2955 789.36 73.2955C787.954 73.2955 786.599 74.1392 786.599 75.8267V77.1818H785.013V78.4602H786.599V87H788.107V78.4602H790.306V77.1818ZM796.792 77.1818H794.594V76.1847C794.594 75.2131 795.003 74.7017 796 74.7017C796.434 74.7017 796.69 74.804 796.844 74.8551L797.278 73.5511C797.048 73.4489 796.588 73.2955 795.846 73.2955C794.44 73.2955 793.085 74.1392 793.085 75.8267V77.1818H791.5V78.4602H793.085V87H794.594V78.4602H796.792V77.1818ZM798.907 87H800.415V77.1818H798.907V87ZM799.674 75.5455C800.262 75.5455 800.747 75.0852 800.747 74.5227C800.747 73.9602 800.262 73.5 799.674 73.5C799.086 73.5 798.6 73.9602 798.6 74.5227C798.6 75.0852 799.086 75.5455 799.674 75.5455ZM807.167 87.2045C809.34 87.2045 810.772 85.875 811.027 84.1364H809.519C809.238 85.2102 808.343 85.8494 807.167 85.8494C805.377 85.8494 804.226 84.3665 804.226 82.0909C804.226 79.8665 805.402 78.4091 807.167 78.4091C808.496 78.4091 809.289 79.2273 809.519 80.1222H811.027C810.772 78.2812 809.212 77.054 807.141 77.054C804.482 77.054 802.718 79.1506 802.718 82.142C802.718 85.0824 804.405 87.2045 807.167 87.2045ZM816.122 87.2301C817.835 87.2301 818.73 86.3097 819.037 85.6705H819.113V87H820.622V80.5312C820.622 77.4119 818.244 77.054 816.991 77.054C815.508 77.054 813.821 77.5653 813.054 79.3551L814.486 79.8665C814.818 79.1506 815.604 78.3835 817.042 78.3835C818.429 78.3835 819.113 79.1186 819.113 80.3778V80.429C819.113 81.1577 818.372 81.0938 816.582 81.3239C814.76 81.5604 812.773 81.9631 812.773 84.2131C812.773 86.1307 814.255 87.2301 816.122 87.2301ZM816.352 85.875C815.15 85.875 814.281 85.3381 814.281 84.2898C814.281 83.1392 815.329 82.7812 816.505 82.6278C817.145 82.5511 818.858 82.3722 819.113 82.0653V83.446C819.113 84.6733 818.142 85.875 816.352 85.875ZM824.884 73.9091H823.375V87H824.884V73.9091ZM835.271 87.18C834.947 87.18 834.635 87.126 834.335 87.018C834.035 86.91 833.789 86.718 833.597 86.442C833.405 86.166 833.309 85.782 833.309 85.29V75.714C833.309 75.042 833.399 74.544 833.579 74.22C833.771 73.896 833.993 73.644 834.245 73.464L834.227 73.392H831.095L831.509 72.132H836.585V73.392C836.141 73.392 835.751 73.536 835.415 73.824C835.079 74.112 834.911 74.64 834.911 75.408V85.092C834.911 85.368 834.971 85.566 835.091 85.686C835.211 85.806 835.403 85.866 835.667 85.866C835.775 85.866 835.889 85.854 836.009 85.83C836.129 85.806 836.243 85.776 836.351 85.74L836.567 86.91C836.339 87.018 836.117 87.09 835.901 87.126C835.685 87.162 835.475 87.18 835.271 87.18ZM841.444 87.18C840.484 87.18 839.728 86.958 839.176 86.514C838.636 86.058 838.252 85.446 838.024 84.678C837.808 83.91 837.7 83.064 837.7 82.14C837.7 80.784 837.886 79.734 838.258 78.99C838.63 78.234 839.146 77.706 839.806 77.406C840.478 77.106 841.252 76.956 842.128 76.956C843.568 76.956 844.612 77.268 845.26 77.892C845.92 78.516 846.25 79.362 846.25 80.43V87H844.666V80.574C844.666 79.83 844.48 79.266 844.108 78.882C843.736 78.486 843.094 78.288 842.182 78.288C841.63 78.288 841.132 78.39 840.688 78.594C840.256 78.798 839.914 79.176 839.662 79.728C839.422 80.28 839.302 81.09 839.302 82.158C839.302 82.854 839.368 83.484 839.5 84.048C839.644 84.6 839.89 85.038 840.238 85.362C840.586 85.686 841.072 85.848 841.696 85.848C841.876 85.848 842.044 85.836 842.2 85.812C842.356 85.788 842.506 85.752 842.65 85.704L842.812 86.946C842.62 87.03 842.398 87.09 842.146 87.126C841.906 87.162 841.672 87.18 841.444 87.18ZM841.087 75.57V74.778C841.327 74.73 841.573 74.664 841.825 74.58C842.077 74.484 842.287 74.364 842.455 74.22C842.623 74.064 842.707 73.878 842.707 73.662C842.707 73.518 842.665 73.398 842.581 73.302C842.485 73.194 842.341 73.14 842.149 73.14C842.029 73.14 841.909 73.164 841.789 73.212C841.657 73.26 841.543 73.302 841.447 73.338L841.087 72.348C841.327 72.156 841.597 72.03 841.897 71.97C842.185 71.91 842.419 71.88 842.599 71.88C843.079 71.88 843.457 72.012 843.733 72.276C843.997 72.54 844.129 72.876 844.129 73.284C844.129 73.488 844.093 73.68 844.021 73.86C843.949 74.028 843.859 74.178 843.751 74.31H846.667V75.57H841.087ZM851.653 87.18C851.329 87.18 851.017 87.126 850.717 87.018C850.417 86.91 850.171 86.718 849.979 86.442C849.787 86.166 849.691 85.782 849.691 85.29V75.408C849.691 74.688 849.517 74.172 849.169 73.86C848.833 73.548 848.401 73.392 847.873 73.392V72.708L849.205 72.132H854.011V73.392H850.357L850.339 73.464C850.603 73.644 850.825 73.92 851.005 74.292C851.197 74.652 851.293 75.126 851.293 75.714V85.092C851.293 85.368 851.353 85.566 851.473 85.686C851.593 85.806 851.785 85.866 852.049 85.866C852.157 85.866 852.271 85.854 852.391 85.83C852.511 85.806 852.625 85.776 852.733 85.74L852.949 86.91C852.721 87.018 852.499 87.09 852.283 87.126C852.067 87.162 851.857 87.18 851.653 87.18ZM857.897 87.18C856.937 87.18 856.181 86.958 855.629 86.514C855.089 86.058 854.705 85.446 854.477 84.678C854.261 83.91 854.153 83.064 854.153 82.14C854.153 80.784 854.339 79.734 854.711 78.99C855.083 78.234 855.599 77.706 856.259 77.406C856.931 77.106 857.705 76.956 858.581 76.956C860.021 76.956 861.065 77.268 861.713 77.892C862.373 78.516 862.703 79.362 862.703 80.43V87H861.119V80.574C861.119 79.83 860.933 79.266 860.561 78.882C860.189 78.486 859.547 78.288 858.635 78.288C858.083 78.288 857.585 78.39 857.141 78.594C856.709 78.798 856.367 79.176 856.115 79.728C855.875 80.28 855.755 81.09 855.755 82.158C855.755 82.854 855.821 83.484 855.953 84.048C856.097 84.6 856.343 85.038 856.691 85.362C857.039 85.686 857.525 85.848 858.149 85.848C858.329 85.848 858.497 85.836 858.653 85.812C858.809 85.788 858.959 85.752 859.103 85.704L859.265 86.946C859.073 87.03 858.851 87.09 858.599 87.126C858.359 87.162 858.125 87.18 857.897 87.18ZM869.421 87.162C867.969 87.162 866.943 86.886 866.343 86.334C865.743 85.782 865.443 85.038 865.443 84.102C865.443 83.55 865.521 83.112 865.677 82.788C865.845 82.452 866.049 82.206 866.289 82.05C866.541 81.894 866.799 81.792 867.063 81.744V81.672C866.823 81.6 866.571 81.48 866.307 81.312C866.043 81.144 865.821 80.91 865.641 80.61C865.473 80.31 865.389 79.932 865.389 79.476C865.389 79.056 865.485 78.66 865.677 78.288C865.869 77.916 866.181 77.61 866.613 77.37C867.045 77.13 867.615 77.01 868.323 77.01C868.611 77.01 868.911 77.034 869.223 77.082C869.535 77.118 869.775 77.184 869.943 77.28L869.655 78.522C869.523 78.474 869.349 78.432 869.133 78.396C868.929 78.348 868.713 78.324 868.485 78.324C867.981 78.324 867.609 78.444 867.369 78.684C867.129 78.912 867.009 79.218 867.009 79.602C867.009 80.022 867.111 80.34 867.315 80.556C867.531 80.772 867.801 80.922 868.125 81.006C868.461 81.078 868.809 81.114 869.169 81.114H869.511V82.284H869.169C868.449 82.284 867.915 82.416 867.567 82.68C867.231 82.932 867.063 83.358 867.063 83.958C867.063 84.306 867.129 84.624 867.261 84.912C867.405 85.2 867.645 85.428 867.981 85.596C868.329 85.764 868.809 85.848 869.421 85.848C870.333 85.848 870.957 85.662 871.293 85.29C871.629 84.906 871.797 84.384 871.797 83.724V77.136H873.399V83.616C873.399 84.876 873.075 85.782 872.427 86.334C871.791 86.886 870.789 87.162 869.421 87.162ZM879.802 87.18C878.794 87.18 878.014 86.952 877.462 86.496C876.91 86.028 876.526 85.398 876.31 84.606C876.094 83.802 875.986 82.89 875.986 81.87C875.986 80.118 876.232 78.864 876.724 78.108C877.228 77.34 877.948 76.956 878.884 76.956C879.304 76.956 879.658 77.028 879.946 77.172C880.246 77.316 880.456 77.556 880.576 77.892H880.648C880.768 77.544 880.984 77.304 881.296 77.172C881.608 77.028 881.974 76.956 882.394 76.956C883.174 76.956 883.774 77.166 884.194 77.586C884.626 77.994 884.842 78.624 884.842 79.476V87H883.24V79.494C883.24 79.026 883.138 78.708 882.934 78.54C882.73 78.372 882.472 78.288 882.16 78.288C881.812 78.288 881.554 78.372 881.386 78.54C881.23 78.708 881.134 78.984 881.098 79.368H880.09C880.042 78.948 879.916 78.666 879.712 78.522C879.508 78.366 879.28 78.288 879.028 78.288C878.548 78.288 878.188 78.57 877.948 79.134C877.708 79.686 877.588 80.604 877.588 81.888C877.588 82.716 877.648 83.424 877.768 84.012C877.9 84.6 878.14 85.056 878.488 85.38C878.836 85.692 879.34 85.848 880 85.848C880.24 85.848 880.438 85.836 880.594 85.812C880.75 85.788 880.9 85.758 881.044 85.722L881.206 86.946C881.026 87.03 880.81 87.09 880.558 87.126C880.306 87.162 880.054 87.18 879.802 87.18ZM890.525 87.18C889.817 87.18 889.157 87.114 888.545 86.982C887.945 86.838 887.435 86.67 887.015 86.478L887.483 85.182C887.867 85.338 888.323 85.488 888.851 85.632C889.391 85.776 889.961 85.848 890.561 85.848C891.197 85.848 891.725 85.728 892.145 85.488C892.565 85.248 892.775 84.9 892.775 84.444C892.775 84.036 892.607 83.7 892.271 83.436C891.935 83.172 891.395 82.926 890.651 82.698C889.895 82.458 889.253 82.206 888.725 81.942C888.209 81.666 887.813 81.342 887.537 80.97C887.273 80.586 887.141 80.112 887.141 79.548C887.141 78.804 887.447 78.186 888.059 77.694C888.671 77.202 889.649 76.956 890.993 76.956C891.569 76.956 892.109 77.01 892.613 77.118C893.129 77.214 893.531 77.352 893.819 77.532V78.882C893.519 78.738 893.105 78.6 892.577 78.468C892.049 78.336 891.503 78.27 890.939 78.27C890.135 78.27 889.565 78.396 889.229 78.648C888.905 78.888 888.743 79.164 888.743 79.476C888.743 79.74 888.815 79.962 888.959 80.142C889.115 80.322 889.373 80.496 889.733 80.664C890.105 80.832 890.603 81.024 891.227 81.24C891.803 81.432 892.331 81.654 892.811 81.906C893.291 82.158 893.669 82.476 893.945 82.86C894.233 83.232 894.377 83.712 894.377 84.3C894.377 84.804 894.251 85.278 893.999 85.722C893.759 86.154 893.357 86.508 892.793 86.784C892.229 87.048 891.473 87.18 890.525 87.18ZM898.162 87L895.084 77.136H896.704L899.368 85.614H899.584C899.872 85.614 900.154 85.548 900.43 85.416C900.706 85.272 900.94 85.092 901.132 84.876C901.492 84.48 901.756 83.982 901.924 83.382C902.092 82.77 902.176 82.17 902.176 81.582C902.176 80.586 901.948 79.806 901.492 79.242C901.048 78.666 900.43 78.378 899.638 78.378C899.314 78.378 899.038 78.42 898.81 78.504L898.414 77.226C898.666 77.154 898.9 77.106 899.116 77.082C899.344 77.058 899.548 77.046 899.728 77.046C900.904 77.046 901.846 77.388 902.554 78.072C902.974 78.48 903.28 78.99 903.472 79.602C903.676 80.214 903.778 80.892 903.778 81.636C903.778 82.572 903.634 83.406 903.346 84.138C903.058 84.858 902.698 85.434 902.266 85.866C901.918 86.214 901.492 86.49 900.988 86.694C900.484 86.898 899.842 87 899.062 87H898.162ZM913.955 87.18C912.899 87.18 912.089 86.94 911.525 86.46C910.973 85.968 910.697 85.266 910.697 84.354C910.697 83.358 911.057 82.59 911.777 82.05C912.509 81.51 913.691 81.192 915.323 81.096L917.051 80.988V80.43C917.051 79.65 916.871 79.098 916.511 78.774C916.163 78.438 915.575 78.27 914.747 78.27C914.147 78.27 913.571 78.354 913.019 78.522C912.479 78.678 911.963 78.9 911.471 79.188V77.694C911.819 77.514 912.287 77.346 912.875 77.19C913.475 77.034 914.147 76.956 914.891 76.956C915.371 76.956 915.797 76.998 916.169 77.082C916.553 77.166 916.871 77.31 917.123 77.514C917.327 77.418 917.501 77.286 917.645 77.118C917.789 76.95 917.861 76.74 917.861 76.488H919.427C919.427 76.944 919.295 77.328 919.031 77.64C918.779 77.952 918.455 78.192 918.059 78.36C918.263 78.576 918.407 78.852 918.491 79.188C918.587 79.524 918.635 79.908 918.635 80.34V87H917.051V82.32L915.539 82.428C914.315 82.512 913.469 82.704 913.001 83.004C912.545 83.304 912.317 83.742 912.317 84.318C912.317 84.858 912.485 85.254 912.821 85.506C913.169 85.758 913.649 85.884 914.261 85.884C914.657 85.884 915.005 85.83 915.305 85.722L915.557 86.928C915.329 87.012 915.077 87.072 914.801 87.108C914.537 87.156 914.255 87.18 913.955 87.18ZM926.326 87.18C925.558 87.18 924.892 87.03 924.328 86.73C923.776 86.418 923.398 85.986 923.194 85.434H923.122L923.032 87H921.718V77.136H923.32V82.842C923.32 83.754 923.554 84.48 924.022 85.02C924.49 85.56 925.15 85.83 926.002 85.83C927.406 85.83 928.108 85.098 928.108 83.634V77.136H929.71V83.742C929.71 84.93 929.41 85.8 928.81 86.352C928.222 86.904 927.394 87.18 926.326 87.18ZM927.425 75.57C926.669 75.57 926.135 75.42 925.823 75.12C925.511 74.808 925.355 74.46 925.355 74.076C925.355 73.896 925.385 73.704 925.445 73.5C925.493 73.284 925.559 73.11 925.643 72.978L926.993 73.212C926.921 73.356 926.885 73.542 926.885 73.77C926.885 73.926 926.933 74.064 927.029 74.184C927.125 74.292 927.287 74.346 927.515 74.346H932.069V75.57H927.425ZM932.63 87V80.7C932.63 79.488 932.954 78.564 933.602 77.928C934.25 77.28 935.282 76.956 936.698 76.956C938.126 76.956 939.158 77.28 939.794 77.928C940.442 78.564 940.766 79.488 940.766 80.7V87H939.164V80.7C939.164 79.092 938.336 78.288 936.68 78.288C935.048 78.288 934.232 79.092 934.232 80.7V82.698L934.286 82.716C934.55 82.248 934.874 81.942 935.258 81.798C935.642 81.642 936.182 81.564 936.878 81.564H937.472V82.878H936.878C936.146 82.878 935.588 82.98 935.204 83.184C934.832 83.388 934.574 83.658 934.43 83.994C934.298 84.318 934.232 84.684 934.232 85.092V87H932.63ZM946.459 87.18C945.751 87.18 945.091 87.114 944.479 86.982C943.879 86.838 943.369 86.67 942.949 86.478L943.417 85.182C943.801 85.338 944.257 85.488 944.785 85.632C945.325 85.776 945.895 85.848 946.495 85.848C947.131 85.848 947.659 85.728 948.079 85.488C948.499 85.248 948.709 84.9 948.709 84.444C948.709 84.036 948.541 83.7 948.205 83.436C947.869 83.172 947.329 82.926 946.585 82.698C945.829 82.458 945.187 82.206 944.659 81.942C944.143 81.666 943.747 81.342 943.471 80.97C943.207 80.586 943.075 80.112 943.075 79.548C943.075 78.804 943.381 78.186 943.993 77.694C944.605 77.202 945.583 76.956 946.927 76.956C947.503 76.956 948.043 77.01 948.547 77.118C949.063 77.214 949.465 77.352 949.753 77.532V78.882C949.453 78.738 949.039 78.6 948.511 78.468C947.983 78.336 947.437 78.27 946.873 78.27C946.069 78.27 945.499 78.396 945.163 78.648C944.839 78.888 944.677 79.164 944.677 79.476C944.677 79.74 944.749 79.962 944.893 80.142C945.049 80.322 945.307 80.496 945.667 80.664C946.039 80.832 946.537 81.024 947.161 81.24C947.737 81.432 948.265 81.654 948.745 81.906C949.225 82.158 949.603 82.476 949.879 82.86C950.167 83.232 950.311 83.712 950.311 84.3C950.311 84.804 950.185 85.278 949.933 85.722C949.693 86.154 949.291 86.508 948.727 86.784C948.163 87.048 947.407 87.18 946.459 87.18ZM954.96 87.18C954.636 87.18 954.324 87.126 954.024 87.018C953.724 86.91 953.478 86.718 953.286 86.442C953.094 86.166 952.998 85.782 952.998 85.29V75.714C952.998 75.042 953.088 74.544 953.268 74.22C953.46 73.896 953.682 73.644 953.934 73.464L953.916 73.392H950.784L951.198 72.132H956.274V73.392C955.83 73.392 955.44 73.536 955.104 73.824C954.768 74.112 954.6 74.64 954.6 75.408V85.092C954.6 85.368 954.66 85.566 954.78 85.686C954.9 85.806 955.092 85.866 955.356 85.866C955.464 85.866 955.578 85.854 955.698 85.83C955.818 85.806 955.932 85.776 956.04 85.74L956.256 86.91C956.028 87.018 955.806 87.09 955.59 87.126C955.374 87.162 955.164 87.18 954.96 87.18ZM961.133 87.18C960.173 87.18 959.417 86.958 958.865 86.514C958.325 86.058 957.941 85.446 957.713 84.678C957.497 83.91 957.389 83.064 957.389 82.14C957.389 80.784 957.575 79.734 957.947 78.99C958.319 78.234 958.835 77.706 959.495 77.406C960.167 77.106 960.941 76.956 961.817 76.956C963.257 76.956 964.301 77.268 964.949 77.892C965.609 78.516 965.939 79.362 965.939 80.43V87H964.355V80.574C964.355 79.83 964.169 79.266 963.797 78.882C963.425 78.486 962.783 78.288 961.871 78.288C961.319 78.288 960.821 78.39 960.377 78.594C959.945 78.798 959.603 79.176 959.351 79.728C959.111 80.28 958.991 81.09 958.991 82.158C958.991 82.854 959.057 83.484 959.189 84.048C959.333 84.6 959.579 85.038 959.927 85.362C960.275 85.686 960.761 85.848 961.385 85.848C961.565 85.848 961.733 85.836 961.889 85.812C962.045 85.788 962.195 85.752 962.339 85.704L962.501 86.946C962.309 87.03 962.087 87.09 961.835 87.126C961.595 87.162 961.361 87.18 961.133 87.18ZM960.777 75.57V74.778C961.017 74.73 961.263 74.664 961.515 74.58C961.767 74.484 961.977 74.364 962.145 74.22C962.313 74.064 962.397 73.878 962.397 73.662C962.397 73.518 962.355 73.398 962.271 73.302C962.175 73.194 962.031 73.14 961.839 73.14C961.719 73.14 961.599 73.164 961.479 73.212C961.347 73.26 961.233 73.302 961.137 73.338L960.777 72.348C961.017 72.156 961.287 72.03 961.587 71.97C961.875 71.91 962.109 71.88 962.289 71.88C962.769 71.88 963.147 72.012 963.423 72.276C963.687 72.54 963.819 72.876 963.819 73.284C963.819 73.488 963.783 73.68 963.711 73.86C963.639 74.028 963.549 74.178 963.441 74.31H966.357V75.57H960.777ZM971.091 87.18C970.767 87.18 970.455 87.126 970.155 87.018C969.855 86.91 969.609 86.718 969.417 86.442C969.225 86.166 969.129 85.782 969.129 85.29V77.136H970.731V85.092C970.731 85.368 970.791 85.566 970.911 85.686C971.031 85.806 971.223 85.866 971.487 85.866C971.595 85.866 971.709 85.854 971.829 85.83C971.949 85.806 972.063 85.776 972.171 85.74L972.387 86.91C972.159 87.018 971.937 87.09 971.721 87.126C971.505 87.162 971.295 87.18 971.091 87.18ZM976.674 87.18C975.618 87.18 974.808 86.94 974.244 86.46C973.692 85.968 973.416 85.266 973.416 84.354C973.416 83.358 973.776 82.59 974.496 82.05C975.228 81.51 976.41 81.192 978.042 81.096L979.77 80.988V80.43C979.77 79.65 979.59 79.098 979.23 78.774C978.882 78.438 978.294 78.27 977.466 78.27C976.866 78.27 976.29 78.354 975.738 78.522C975.198 78.678 974.682 78.9 974.19 79.188V77.694C974.538 77.514 975.006 77.346 975.594 77.19C976.194 77.034 976.866 76.956 977.61 76.956C978.87 76.956 979.806 77.232 980.418 77.784C981.042 78.324 981.354 79.176 981.354 80.34V87H979.77V82.32L978.258 82.428C977.034 82.512 976.188 82.704 975.72 83.004C975.264 83.304 975.036 83.742 975.036 84.318C975.036 84.858 975.204 85.254 975.54 85.506C975.888 85.758 976.368 85.884 976.98 85.884C977.376 85.884 977.724 85.83 978.024 85.722L978.276 86.928C978.048 87.012 977.796 87.072 977.52 87.108C977.256 87.156 976.974 87.18 976.674 87.18ZM988.073 87.162C986.621 87.162 985.595 86.886 984.995 86.334C984.395 85.782 984.095 85.038 984.095 84.102C984.095 83.55 984.173 83.112 984.329 82.788C984.497 82.452 984.701 82.206 984.941 82.05C985.193 81.894 985.451 81.792 985.715 81.744V81.672C985.475 81.6 985.223 81.48 984.959 81.312C984.695 81.144 984.473 80.91 984.293 80.61C984.125 80.31 984.041 79.932 984.041 79.476C984.041 79.056 984.137 78.66 984.329 78.288C984.521 77.916 984.833 77.61 985.265 77.37C985.697 77.13 986.267 77.01 986.975 77.01C987.263 77.01 987.563 77.034 987.875 77.082C988.187 77.118 988.427 77.184 988.595 77.28L988.307 78.522C988.175 78.474 988.001 78.432 987.785 78.396C987.581 78.348 987.365 78.324 987.137 78.324C986.633 78.324 986.261 78.444 986.021 78.684C985.781 78.912 985.661 79.218 985.661 79.602C985.661 80.022 985.763 80.34 985.967 80.556C986.183 80.772 986.453 80.922 986.777 81.006C987.113 81.078 987.461 81.114 987.821 81.114H988.163V82.284H987.821C987.101 82.284 986.567 82.416 986.219 82.68C985.883 82.932 985.715 83.358 985.715 83.958C985.715 84.306 985.781 84.624 985.913 84.912C986.057 85.2 986.297 85.428 986.633 85.596C986.981 85.764 987.461 85.848 988.073 85.848C988.985 85.848 989.609 85.662 989.945 85.29C990.281 84.906 990.449 84.384 990.449 83.724V77.136H992.051V83.616C992.051 84.876 991.727 85.782 991.079 86.334C990.443 86.886 989.441 87.162 988.073 87.162ZM998.454 87.18C997.446 87.18 996.666 86.952 996.114 86.496C995.562 86.028 995.178 85.398 994.962 84.606C994.746 83.802 994.638 82.89 994.638 81.87C994.638 80.118 994.884 78.864 995.376 78.108C995.88 77.34 996.6 76.956 997.536 76.956C997.956 76.956 998.31 77.028 998.598 77.172C998.898 77.316 999.108 77.556 999.228 77.892H999.3C999.42 77.544 999.636 77.304 999.948 77.172C1000.26 77.028 1000.63 76.956 1001.05 76.956C1001.83 76.956 1002.43 77.166 1002.85 77.586C1003.28 77.994 1003.49 78.624 1003.49 79.476V87H1001.89V79.494C1001.89 79.026 1001.79 78.708 1001.59 78.54C1001.38 78.372 1001.12 78.288 1000.81 78.288C1000.46 78.288 1000.21 78.372 1000.04 78.54C999.882 78.708 999.786 78.984 999.75 79.368H998.742C998.694 78.948 998.568 78.666 998.364 78.522C998.16 78.366 997.932 78.288 997.68 78.288C997.2 78.288 996.84 78.57 996.6 79.134C996.36 79.686 996.24 80.604 996.24 81.888C996.24 82.716 996.3 83.424 996.42 84.012C996.552 84.6 996.792 85.056 997.14 85.38C997.488 85.692 997.992 85.848 998.652 85.848C998.892 85.848 999.09 85.836 999.246 85.812C999.402 85.788 999.552 85.758 999.696 85.722L999.858 86.946C999.678 87.03 999.462 87.09 999.21 87.126C998.958 87.162 998.706 87.18 998.454 87.18ZM1009.9 87.18C1008.6 87.18 1007.63 86.844 1006.98 86.172C1006.35 85.488 1006.03 84.42 1006.03 82.968C1006.03 82.728 1006.03 82.47 1006.05 82.194C1006.07 81.906 1006.09 81.624 1006.12 81.348H1009.9V82.608H1007.63V82.968C1007.63 83.724 1007.71 84.318 1007.88 84.75C1008.05 85.17 1008.3 85.464 1008.62 85.632C1008.96 85.8 1009.37 85.884 1009.86 85.884C1010.4 85.884 1010.87 85.782 1011.27 85.578C1011.66 85.374 1011.97 85.002 1012.18 84.462C1012.4 83.922 1012.51 83.148 1012.51 82.14C1012.51 80.82 1012.28 79.848 1011.82 79.224C1011.38 78.6 1010.61 78.288 1009.5 78.288C1008.93 78.288 1008.37 78.366 1007.85 78.522C1007.33 78.666 1006.83 78.876 1006.35 79.152V77.658C1006.71 77.466 1007.19 77.304 1007.77 77.172C1008.36 77.028 1009 76.956 1009.7 76.956C1010.76 76.956 1011.61 77.172 1012.26 77.604C1012.92 78.024 1013.4 78.624 1013.7 79.404C1014 80.172 1014.15 81.084 1014.15 82.14C1014.15 83.196 1014.01 84.102 1013.73 84.858C1013.46 85.614 1013.01 86.19 1012.38 86.586C1011.77 86.982 1010.94 87.18 1009.9 87.18ZM1020.14 87.18C1019.09 87.18 1018.25 86.904 1017.64 86.352C1017.04 85.8 1016.74 84.924 1016.74 83.724V77.136H1018.34V83.634C1018.34 85.098 1019.06 85.83 1020.49 85.83C1021.33 85.83 1021.97 85.56 1022.43 85.02C1022.9 84.48 1023.13 83.754 1023.13 82.842V77.136H1024.73V87H1023.4L1023.33 85.542H1023.24C1023.02 86.022 1022.65 86.418 1022.11 86.73C1021.58 87.03 1020.92 87.18 1020.14 87.18ZM1031.18 87.18C1030.13 87.18 1029.29 86.904 1028.68 86.352C1028.08 85.8 1027.78 84.924 1027.78 83.724V77.136H1029.38V83.634C1029.38 85.098 1030.1 85.83 1031.52 85.83C1032.36 85.83 1033.01 85.56 1033.47 85.02C1033.94 84.48 1034.17 83.754 1034.17 82.842V77.136H1035.77V87H1034.44L1034.37 85.542H1034.28C1034.06 86.022 1033.68 86.418 1033.14 86.73C1032.62 87.03 1031.96 87.18 1031.18 87.18ZM1028.11 75.57V74.868L1029.42 74.292H1034.27V72.834H1035.78V74.868H1035.76V75.57H1028.11ZM1032.72 71.772V71.142C1032.96 71.082 1033.22 70.986 1033.49 70.854C1033.76 70.722 1033.89 70.524 1033.89 70.26C1033.89 69.984 1033.75 69.846 1033.47 69.846C1033.28 69.846 1033.08 69.906 1032.88 70.026L1032.56 69.198C1032.77 69.054 1033.02 68.958 1033.29 68.91C1033.56 68.862 1033.77 68.838 1033.92 68.838C1034.24 68.838 1034.52 68.922 1034.77 69.09C1035.02 69.246 1035.15 69.516 1035.15 69.9C1035.15 69.996 1035.14 70.104 1035.11 70.224C1035.09 70.344 1035.05 70.458 1034.99 70.566H1037.25V71.772H1032.72Z" fill="#E5E7EB"/>
</svg>
